<?xml version="1.0" encoding="UTF-8"?>
<!DOCTYPE svg PUBLIC "-//W3C//DTD SVG 1.1//EN" "http://www.w3.org/Graphics/SVG/1.1/DTD/svg11.dtd">
<svg xmlns="http://www.w3.org/2000/svg" version="1.1" width="322px" height="286px" style="shape-rendering:geometricPrecision; text-rendering:geometricPrecision; image-rendering:optimizeQuality; fill-rule:evenodd; clip-rule:evenodd" xmlns:xlink="http://www.w3.org/1999/xlink">
<g><path style="opacity:0.004" fill="#fefffe" d="M 61.5,2.5 C 62.8333,3.16667 62.8333,3.16667 61.5,2.5 Z"/></g>
<g><path style="opacity:0.004" fill="#fefffe" d="M 38.5,7.5 C 39.8333,8.16667 39.8333,8.16667 38.5,7.5 Z"/></g>
<g><path style="opacity:0.836" fill="#f6f8f8" d="M 309.5,57.5 C 308.167,57.5 306.833,57.5 305.5,57.5C 305.167,59.5 304.833,61.5 304.5,63.5C 303.5,63.5 302.5,63.5 301.5,63.5C 301.496,61.1579 300.663,59.1579 299,57.5C 299.904,60.0256 300.238,62.6922 300,65.5C 299.261,63.7795 298.427,62.1128 297.5,60.5C 296.094,61.6682 294.928,61.3348 294,59.5C 291.005,55.8158 288.338,51.8158 286,47.5C 284.693,46.2283 283.193,45.2283 281.5,44.5C 280.872,42.7419 279.872,41.2419 278.5,40C 278.833,39.6667 279.167,39.3333 279.5,39C 272.394,35.1741 265.394,31.3408 258.5,27.5C 253.946,26.9429 249.779,25.6096 246,23.5C 243.234,22.8854 240.567,22.8854 238,23.5C 236.829,22.6604 235.662,21.8271 234.5,21C 228.804,20.7426 223.137,20.2426 217.5,19.5C 214.756,20.4906 212.089,20.1573 209.5,18.5C 203.382,19.7797 197.382,19.2797 191.5,17C 190.638,14.2656 189.805,14.0989 189,16.5C 176.924,16.4999 164.091,16.3332 150.5,16C 147.974,14.7415 145.641,14.7415 143.5,16C 136.237,17.0503 129.237,16.2169 122.5,13.5C 117.765,16.0688 113.098,16.0688 108.5,13.5C 107.808,14.0253 107.308,14.6919 107,15.5C 106.581,14.3279 105.915,13.3279 105,12.5C 102.961,12.3664 100.794,12.8664 98.5,14C 99.7059,15.0177 99.3726,15.5177 97.5,15.5C 90.8973,12.5031 84.2306,12.1698 77.5,14.5C 71.2448,14.7388 65.2448,14.4055 59.5,13.5C 55.4923,15.0732 50.9923,17.0732 46,19.5C 43.2095,18.2184 41.0429,19.0517 39.5,22C 32.8126,22.7571 27.6459,25.9238 24,31.5C 23.6667,31.1667 23.3333,30.8333 23,30.5C 22.5831,31.756 21.7498,32.4226 20.5,32.5C 29.7906,18.7467 42.7906,10.9134 59.5,9C 70.1447,7.8863 80.8114,7.05297 91.5,6.5C 139.157,8.28766 186.824,9.78766 234.5,11C 250.97,11.3597 266.636,15.0263 281.5,22C 295.169,30.4929 304.503,42.3262 309.5,57.5 Z"/></g>
<g><path style="opacity:0.004" fill="#fefffe" d="M 281.5,8.5 C 282.833,9.16667 282.833,9.16667 281.5,8.5 Z"/></g>
<g><path style="opacity:1" fill="#f0f1f5" d="M 309.5,57.5 C 311.629,62.8747 313.129,68.5414 314,74.5C 314.834,85.1785 315.667,95.8452 316.5,106.5C 315.696,104.811 314.696,103.145 313.5,101.5C 313.167,102.333 312.833,103.167 312.5,104C 311.581,111.801 311.248,119.635 311.5,127.5C 310.972,140.869 310.138,154.536 309,168.5C 308.167,169.5 307.333,170.5 306.5,171.5C 305.5,170.5 304.5,169.5 303.5,168.5C 305.917,164.293 306.084,159.959 304,155.5C 303.667,156.167 303.333,156.833 303,157.5C 301.779,156.226 300.946,154.726 300.5,153C 301.135,147.202 301.468,141.369 301.5,135.5C 300.966,122.157 300.299,108.823 299.5,95.5C 298.167,95.5 296.833,95.5 295.5,95.5C 295.828,90.1254 295.495,84.7921 294.5,79.5C 292.296,76.553 291.296,73.2196 291.5,69.5C 290.167,69.5 288.833,69.5 287.5,69.5C 286.14,64.5962 282.807,62.5962 277.5,63.5C 277.82,60.1016 277.487,56.7683 276.5,53.5C 273.004,52.9397 271.337,50.9397 271.5,47.5C 266.5,47.5 261.5,47.5 256.5,47.5C 256.384,43.4366 255.051,42.7699 252.5,45.5C 251.451,48.4169 249.784,48.9169 247.5,47C 244.667,43.5 241.833,40 239,36.5C 238.667,37.1667 238.333,37.8333 238,38.5C 234.598,37.2109 230.931,36.5442 227,36.5C 223.317,36.5014 219.817,36.8348 216.5,37.5C 214.833,37.5 213.167,37.5 211.5,37.5C 211.5,36.5 211.5,35.5 211.5,34.5C 209.488,33.9862 207.488,33.8195 205.5,34C 200.932,37.7768 196.432,41.6102 192,45.5C 190.287,44.8626 190.121,43.8626 191.5,42.5C 194.423,40.1563 196.756,37.323 198.5,34C 196.956,33.7104 195.623,33.0437 194.5,32C 188.167,31.6667 181.833,31.3333 175.5,31C 183.858,30.6235 192.191,29.9568 200.5,29C 197.518,28.502 194.518,28.3354 191.5,28.5C 191.5,27.5 191.5,26.5 191.5,25.5C 180.813,25.832 170.146,25.4987 159.5,24.5C 156.602,22.111 153.435,21.4444 150,22.5C 147.923,21.9828 145.923,21.3161 144,20.5C 134.748,22.2641 125.248,23.2641 115.5,23.5C 114.167,23.3333 112.833,23.1667 111.5,23C 117.279,22.6816 117.613,21.8483 112.5,20.5C 100.092,21.5216 87.7591,21.5216 75.5,20.5C 70.226,20.313 70.226,19.813 75.5,19C 74.1667,18.8333 72.8333,18.6667 71.5,18.5C 68.5837,18.2677 66.7504,18.9344 66,20.5C 61.6438,18.422 57.1438,18.2553 52.5,20C 52.0968,21.6041 50.7635,22.7708 48.5,23.5C 47.914,23.2907 47.414,22.9574 47,22.5C 44.0492,24.0761 40.8826,24.7428 37.5,24.5C 37.719,25.675 37.3857,26.675 36.5,27.5C 33.5,28.8333 30.5,30.1667 27.5,31.5C 26.269,32.6507 26.269,33.8173 27.5,35C 22.9082,39.7676 17.9082,43.9343 12.5,47.5C 14.3316,42.0157 16.9982,37.0157 20.5,32.5C 21.7498,32.4226 22.5831,31.756 23,30.5C 23.3333,30.8333 23.6667,31.1667 24,31.5C 27.6459,25.9238 32.8126,22.7571 39.5,22C 41.0429,19.0517 43.2095,18.2184 46,19.5C 50.9923,17.0732 55.4923,15.0732 59.5,13.5C 65.2448,14.4055 71.2448,14.7388 77.5,14.5C 84.2306,12.1698 90.8973,12.5031 97.5,15.5C 99.3726,15.5177 99.7059,15.0177 98.5,14C 100.794,12.8664 102.961,12.3664 105,12.5C 105.915,13.3279 106.581,14.3279 107,15.5C 107.308,14.6919 107.808,14.0253 108.5,13.5C 113.098,16.0688 117.765,16.0688 122.5,13.5C 129.237,16.2169 136.237,17.0503 143.5,16C 145.641,14.7415 147.974,14.7415 150.5,16C 164.091,16.3332 176.924,16.4999 189,16.5C 189.805,14.0989 190.638,14.2656 191.5,17C 197.382,19.2797 203.382,19.7797 209.5,18.5C 212.089,20.1573 214.756,20.4906 217.5,19.5C 223.137,20.2426 228.804,20.7426 234.5,21C 235.662,21.8271 236.829,22.6604 238,23.5C 240.567,22.8854 243.234,22.8854 246,23.5C 249.779,25.6096 253.946,26.9429 258.5,27.5C 265.394,31.3408 272.394,35.1741 279.5,39C 279.167,39.3333 278.833,39.6667 278.5,40C 279.872,41.2419 280.872,42.7419 281.5,44.5C 283.193,45.2283 284.693,46.2283 286,47.5C 288.338,51.8158 291.005,55.8158 294,59.5C 294.928,61.3348 296.094,61.6682 297.5,60.5C 298.427,62.1128 299.261,63.7795 300,65.5C 300.238,62.6922 299.904,60.0256 299,57.5C 300.663,59.1579 301.496,61.1579 301.5,63.5C 302.5,63.5 303.5,63.5 304.5,63.5C 304.833,61.5 305.167,59.5 305.5,57.5C 306.833,57.5 308.167,57.5 309.5,57.5 Z"/></g>
<g><path style="opacity:1" fill="#ebecf1" d="M 211.5,37.5 C 208.991,38.9213 206.657,40.5879 204.5,42.5C 201.167,43.8333 198.833,46.1667 197.5,49.5C 196.542,49.9528 195.708,50.6195 195,51.5C 193.358,56.4023 192.191,61.4023 191.5,66.5C 190.833,66.5 190.5,66.1667 190.5,65.5C 190.756,63.2075 190.423,61.0408 189.5,59C 188.551,58.3828 187.718,58.5494 187,59.5C 183.553,57.7185 180.219,55.7185 177,53.5C 176.5,54 176,54.5 175.5,55C 165.172,55.4998 154.839,55.6665 144.5,55.5C 144.494,51.8981 142.66,49.8981 139,49.5C 135.367,49.4829 131.533,49.6496 127.5,50C 126.359,50.7412 126.359,51.5745 127.5,52.5C 126.372,53.2621 125.205,53.9288 124,54.5C 114.118,54.2349 103.284,53.2349 91.5,51.5C 86.3693,51.6744 81.3693,52.341 76.5,53.5C 76.6162,50.0897 74.9496,48.7564 71.5,49.5C 71.6216,53.1473 73.2882,55.9806 76.5,58C 73.6996,59.2319 70.6996,59.8985 67.5,60C 65.2642,60.7339 63.9308,62.2339 63.5,64.5C 64.4803,88.1405 64.8136,111.807 64.5,135.5C 62.2627,134.551 59.9294,133.884 57.5,133.5C 57.6715,131.508 57.0049,129.842 55.5,128.5C 56.7243,125.869 57.391,123.035 57.5,120C 57.3333,117.5 57.1667,115 57,112.5C 55.9887,111.663 54.8221,111.33 53.5,111.5C 53.0804,101.141 52.2471,90.8072 51,80.5C 50,80.1667 49,79.8333 48,79.5C 47.6839,74.5364 45.1839,71.2031 40.5,69.5C 39.8333,66.1667 39.1667,62.8333 38.5,59.5C 36.315,56.912 33.6483,55.0787 30.5,54C 25.5821,53.8052 20.7488,53.3052 16,52.5C 14.8808,53.5521 14.3808,54.7188 14.5,56C 13.0715,56.5791 11.7382,56.4124 10.5,55.5C 11.3705,52.8877 12.0372,50.221 12.5,47.5C 17.9082,43.9343 22.9082,39.7676 27.5,35C 26.269,33.8173 26.269,32.6507 27.5,31.5C 30.5,30.1667 33.5,28.8333 36.5,27.5C 37.3857,26.675 37.719,25.675 37.5,24.5C 40.8826,24.7428 44.0492,24.0761 47,22.5C 47.414,22.9574 47.914,23.2907 48.5,23.5C 50.7635,22.7708 52.0968,21.6041 52.5,20C 57.1438,18.2553 61.6438,18.422 66,20.5C 66.7504,18.9344 68.5837,18.2677 71.5,18.5C 72.8333,18.6667 74.1667,18.8333 75.5,19C 70.226,19.813 70.226,20.313 75.5,20.5C 87.7591,21.5216 100.092,21.5216 112.5,20.5C 117.613,21.8483 117.279,22.6816 111.5,23C 112.833,23.1667 114.167,23.3333 115.5,23.5C 125.248,23.2641 134.748,22.2641 144,20.5C 145.923,21.3161 147.923,21.9828 150,22.5C 153.435,21.4444 156.602,22.111 159.5,24.5C 170.146,25.4987 180.813,25.832 191.5,25.5C 191.5,26.5 191.5,27.5 191.5,28.5C 194.518,28.3354 197.518,28.502 200.5,29C 192.191,29.9568 183.858,30.6235 175.5,31C 181.833,31.3333 188.167,31.6667 194.5,32C 195.623,33.0437 196.956,33.7104 198.5,34C 196.756,37.323 194.423,40.1563 191.5,42.5C 190.121,43.8626 190.287,44.8626 192,45.5C 196.432,41.6102 200.932,37.7768 205.5,34C 207.488,33.8195 209.488,33.9862 211.5,34.5C 211.5,35.5 211.5,36.5 211.5,37.5 Z"/></g>
<g><path style="opacity:1" fill="#8cbdef" d="M 211.5,37.5 C 213.167,37.5 214.833,37.5 216.5,37.5C 219.713,37.19 222.713,37.5233 225.5,38.5C 221.486,38.3345 217.486,38.5012 213.5,39C 212.584,39.2784 211.918,39.7784 211.5,40.5C 210.391,40.5569 209.391,40.8902 208.5,41.5C 207.167,41.8333 205.833,42.1667 204.5,42.5C 206.657,40.5879 208.991,38.9213 211.5,37.5 Z"/></g>
<g><path style="opacity:1" fill="#ebeef6" d="M 311.5,127.5 C 312.045,144.94 311.045,162.274 308.5,179.5C 307.67,182.452 306.336,185.285 304.5,188C 304.62,189.798 304.953,191.631 305.5,193.5C 303.738,195.108 302.572,197.108 302,199.5C 301.612,198.572 300.945,197.905 300,197.5C 297.877,200.212 295.377,200.878 292.5,199.5C 293.554,194.418 292.054,190.418 288,187.5C 287.781,188.938 287.281,190.271 286.5,191.5C 285.5,172.845 285.167,154.179 285.5,135.5C 286.5,135.5 287.5,135.5 288.5,135.5C 289.191,128.73 290.525,122.063 292.5,115.5C 291.876,108.473 291.043,101.473 290,94.5C 287.248,95.858 286.748,95.1913 288.5,92.5C 288.457,88.8881 286.957,86.2214 284,84.5C 283.197,81.7558 282.197,79.0891 281,76.5C 278.293,75.5633 275.793,74.2299 273.5,72.5C 273.709,71.914 274.043,71.414 274.5,71C 273.887,68.8526 273.221,66.686 272.5,64.5C 270.923,68.7516 267.923,71.0849 263.5,71.5C 265.99,65.4089 264.656,60.4089 259.5,56.5C 258.675,55.6143 257.675,55.281 256.5,55.5C 256.803,52.4124 255.47,50.7458 252.5,50.5C 252.5,49.5 252.5,48.5 252.5,47.5C 256.5,46.8333 256.5,46.1667 252.5,45.5C 255.051,42.7699 256.384,43.4366 256.5,47.5C 261.5,47.5 266.5,47.5 271.5,47.5C 271.337,50.9397 273.004,52.9397 276.5,53.5C 277.487,56.7683 277.82,60.1016 277.5,63.5C 282.807,62.5962 286.14,64.5962 287.5,69.5C 288.833,69.5 290.167,69.5 291.5,69.5C 291.296,73.2196 292.296,76.553 294.5,79.5C 295.495,84.7921 295.828,90.1254 295.5,95.5C 296.833,95.5 298.167,95.5 299.5,95.5C 300.299,108.823 300.966,122.157 301.5,135.5C 301.468,141.369 301.135,147.202 300.5,153C 300.946,154.726 301.779,156.226 303,157.5C 303.333,156.833 303.667,156.167 304,155.5C 306.084,159.959 305.917,164.293 303.5,168.5C 304.5,169.5 305.5,170.5 306.5,171.5C 307.333,170.5 308.167,169.5 309,168.5C 310.138,154.536 310.972,140.869 311.5,127.5 Z"/></g>
<g><path style="opacity:1" fill="#82b7ee" d="M 204.5,42.5 C 202.5,45.1667 200.167,47.5 197.5,49.5C 198.833,46.1667 201.167,43.8333 204.5,42.5 Z"/></g>
<g><path style="opacity:1" fill="#6eb2f3" d="M 225.5,38.5 C 225.833,38.5 226.167,38.5 226.5,38.5C 232.114,40.066 236.947,43.066 241,47.5C 243.416,52.2816 245.916,56.9483 248.5,61.5C 248.818,66.0323 248.485,70.3656 247.5,74.5C 247.665,70.8183 247.499,67.1516 247,63.5C 246.617,62.944 246.117,62.6107 245.5,62.5C 240.265,45.5582 228.932,38.2249 211.5,40.5C 211.918,39.7784 212.584,39.2784 213.5,39C 217.486,38.5012 221.486,38.3345 225.5,38.5 Z"/></g>
<g><path style="opacity:1" fill="#f4ece6" d="M 190.5,65.5 C 189.833,65.5 189.167,65.5 188.5,65.5C 184.956,63.7316 180.956,62.8982 176.5,63C 160.17,62.5001 143.837,62.3334 127.5,62.5C 108.184,60.6052 88.8509,60.2718 69.5,61.5C 66.7569,61.0772 65.4235,62.2439 65.5,65C 66.4778,91.145 66.8111,117.312 66.5,143.5C 66.8269,153.015 66.4936,162.348 65.5,171.5C 64.8338,159.512 64.5005,147.512 64.5,135.5C 64.8136,111.807 64.4803,88.1405 63.5,64.5C 63.9308,62.2339 65.2642,60.7339 67.5,60C 70.6996,59.8985 73.6996,59.2319 76.5,58C 73.2882,55.9806 71.6216,53.1473 71.5,49.5C 74.9496,48.7564 76.6162,50.0897 76.5,53.5C 81.3693,52.341 86.3693,51.6744 91.5,51.5C 103.284,53.2349 114.118,54.2349 124,54.5C 125.205,53.9288 126.372,53.2621 127.5,52.5C 126.359,51.5745 126.359,50.7412 127.5,50C 131.533,49.6496 135.367,49.4829 139,49.5C 142.66,49.8981 144.494,51.8981 144.5,55.5C 154.839,55.6665 165.172,55.4998 175.5,55C 176,54.5 176.5,54 177,53.5C 180.219,55.7185 183.553,57.7185 187,59.5C 187.718,58.5494 188.551,58.3828 189.5,59C 190.423,61.0408 190.756,63.2075 190.5,65.5 Z"/></g>
<g><path style="opacity:1" fill="#a1c6f0" d="M 226.5,38.5 C 228.857,38.3367 231.19,38.5034 233.5,39C 250.078,48.3535 255.078,61.8535 248.5,79.5C 249.664,73.3494 249.664,67.3494 248.5,61.5C 245.916,56.9483 243.416,52.2816 241,47.5C 236.947,43.066 232.114,40.066 226.5,38.5 Z"/></g>
<g><path style="opacity:1" fill="#4a93cf" d="M 197.5,49.5 C 195.954,51.8825 195.287,54.5491 195.5,57.5C 195.5,58.5 195.5,59.5 195.5,60.5C 194.549,61.9187 194.216,63.5853 194.5,65.5C 193.662,65.8417 193.328,66.5084 193.5,67.5C 192.833,67.1667 192.167,66.8333 191.5,66.5C 192.191,61.4023 193.358,56.4023 195,51.5C 195.708,50.6195 196.542,49.9528 197.5,49.5 Z"/></g>
<g><path style="opacity:1" fill="#e8ecf5" d="M 216.5,37.5 C 219.817,36.8348 223.317,36.5014 227,36.5C 230.931,36.5442 234.598,37.2109 238,38.5C 238.333,37.8333 238.667,37.1667 239,36.5C 241.833,40 244.667,43.5 247.5,47C 249.784,48.9169 251.451,48.4169 252.5,45.5C 256.5,46.1667 256.5,46.8333 252.5,47.5C 252.5,48.5 252.5,49.5 252.5,50.5C 255.47,50.7458 256.803,52.4124 256.5,55.5C 257.675,55.281 258.675,55.6143 259.5,56.5C 264.656,60.4089 265.99,65.4089 263.5,71.5C 267.923,71.0849 270.923,68.7516 272.5,64.5C 273.221,66.686 273.887,68.8526 274.5,71C 274.043,71.414 273.709,71.914 273.5,72.5C 275.793,74.2299 278.293,75.5633 281,76.5C 282.197,79.0891 283.197,81.7558 284,84.5C 286.957,86.2214 288.457,88.8881 288.5,92.5C 286.748,95.1913 287.248,95.858 290,94.5C 291.043,101.473 291.876,108.473 292.5,115.5C 290.525,122.063 289.191,128.73 288.5,135.5C 287.5,135.5 286.5,135.5 285.5,135.5C 285.167,154.179 285.5,172.845 286.5,191.5C 287.281,190.271 287.781,188.938 288,187.5C 292.054,190.418 293.554,194.418 292.5,199.5C 295.377,200.878 297.877,200.212 300,197.5C 300.945,197.905 301.612,198.572 302,199.5C 302.572,197.108 303.738,195.108 305.5,193.5C 304.953,191.631 304.62,189.798 304.5,188C 306.336,185.285 307.67,182.452 308.5,179.5C 307.626,184.919 307.126,190.253 307,195.5C 304.77,199.991 302.27,204.325 299.5,208.5C 298.372,209.262 297.205,209.929 296,210.5C 295.094,208.388 293.594,207.555 291.5,208C 290.37,210.428 288.87,212.595 287,214.5C 283.943,213.549 280.777,213.216 277.5,213.5C 277.825,216.524 276.492,218.191 273.5,218.5C 264.709,217.984 256.043,216.651 247.5,214.5C 249.995,212.836 251.995,210.67 253.5,208C 248.203,206.866 248.203,206.032 253.5,205.5C 253.708,203.08 253.374,200.747 252.5,198.5C 253.325,197.614 254.325,197.281 255.5,197.5C 255.5,195.5 255.5,193.5 255.5,191.5C 253.142,191.747 251.142,191.081 249.5,189.5C 250.291,184.411 248.958,180.078 245.5,176.5C 246.689,175.571 248.022,175.238 249.5,175.5C 249.5,170.167 249.5,164.833 249.5,159.5C 251.467,159.739 253.301,159.406 255,158.5C 255.833,146.153 255.666,133.82 254.5,121.5C 249.894,117.824 248.561,113.157 250.5,107.5C 252.972,105.702 254.639,103.368 255.5,100.5C 255.167,99.5 254.833,98.5 254.5,97.5C 253.408,99.5958 251.741,100.929 249.5,101.5C 247.004,100.42 244.67,99.0862 242.5,97.5C 241.561,99.0534 240.394,100.387 239,101.5C 238.5,101.167 238,100.833 237.5,100.5C 240.242,96.9223 243.742,94.2556 248,92.5C 247.893,86.2231 246.393,86.2231 243.5,92.5C 240.476,94.5219 237.143,95.5219 233.5,95.5C 232.833,95.5 232.167,95.5 231.5,95.5C 232.167,94.8333 232.833,94.1667 233.5,93.5C 234.167,93.5 234.833,93.5 235.5,93.5C 239.18,90.6594 243.014,87.9928 247,85.5C 247.813,83.5643 248.313,81.5643 248.5,79.5C 255.078,61.8535 250.078,48.3535 233.5,39C 231.19,38.5034 228.857,38.3367 226.5,38.5C 226.167,38.5 225.833,38.5 225.5,38.5C 222.713,37.5233 219.713,37.19 216.5,37.5 Z"/></g>
<g><path style="opacity:1" fill="#e6eaf2" d="M 64.5,135.5 C 64.5005,147.512 64.8338,159.512 65.5,171.5C 65.2053,173.735 65.5386,175.735 66.5,177.5C 66.5,178.167 66.8333,178.5 67.5,178.5C 67.6107,179.117 67.944,179.617 68.5,180C 74.6731,182.001 81.0064,182.834 87.5,182.5C 87.5,182.833 87.5,183.167 87.5,183.5C 83.9929,182.994 80.8263,183.66 78,185.5C 75.6985,184.133 73.1985,183.466 70.5,183.5C 68.3424,181.007 65.6757,179.34 62.5,178.5C 62.5,177.5 62.5,176.5 62.5,175.5C 59.2299,174.897 57.2299,172.897 56.5,169.5C 54.1911,167.013 51.5244,165.013 48.5,163.5C 47.1921,160.294 46.5254,156.96 46.5,153.5C 40.7945,153.829 35.1278,153.495 29.5,152.5C 25.8333,151.5 23.5,149.167 22.5,145.5C 21.5041,139.537 21.1707,133.537 21.5,127.5C 20.5,127.5 19.5,127.5 18.5,127.5C 19.3046,134.722 19.638,141.889 19.5,149C 19.1667,149.833 18.8333,150.667 18.5,151.5C 17.6667,150.5 16.8333,149.5 16,148.5C 15.2026,135.14 15.3693,121.807 16.5,108.5C 15.9361,106.181 15.4361,103.847 15,101.5C 14,101.5 13,101.5 12,101.5C 12.1842,97.4597 12.0175,93.4597 11.5,89.5C 12.4994,84.8445 12.9994,80.1779 13,75.5C 12.6667,75.8333 12.3333,76.1667 12,76.5C 11.6667,74.1667 11.3333,71.8333 11,69.5C 10.5831,68.244 9.74975,67.5774 8.5,67.5C 9.32713,63.5607 9.99379,59.5607 10.5,55.5C 11.7382,56.4124 13.0715,56.5791 14.5,56C 14.3808,54.7188 14.8808,53.5521 16,52.5C 20.7488,53.3052 25.5821,53.8052 30.5,54C 33.6483,55.0787 36.315,56.912 38.5,59.5C 39.1667,62.8333 39.8333,66.1667 40.5,69.5C 45.1839,71.2031 47.6839,74.5364 48,79.5C 49,79.8333 50,80.1667 51,80.5C 52.2471,90.8072 53.0804,101.141 53.5,111.5C 54.8221,111.33 55.9887,111.663 57,112.5C 57.1667,115 57.3333,117.5 57.5,120C 57.391,123.035 56.7243,125.869 55.5,128.5C 57.0049,129.842 57.6715,131.508 57.5,133.5C 59.9294,133.884 62.2627,134.551 64.5,135.5 Z"/></g>
<g><path style="opacity:1" fill="#fef0c7" d="M 69.5,61.5 C 88.8509,60.2718 108.184,60.6052 127.5,62.5C 127.5,62.8333 127.5,63.1667 127.5,63.5C 122.167,63.5 116.833,63.5 111.5,63.5C 109.031,62.6829 106.365,62.1829 103.5,62C 92.1716,61.5001 80.8382,61.3335 69.5,61.5 Z"/></g>
<g><path style="opacity:0.004" fill="#fefffe" d="M -0.5,62.5 C 0.833333,63.1667 0.833333,63.1667 -0.5,62.5 Z"/></g>
<g><path style="opacity:1" fill="#f4d98f" d="M 69.5,61.5 C 80.8382,61.3335 92.1716,61.5001 103.5,62C 106.365,62.1829 109.031,62.6829 111.5,63.5C 97.3379,62.4225 83.3379,62.4225 69.5,63.5C 68.5,63.5 67.5,63.5 66.5,63.5C 66.4326,64.9587 66.7659,66.2921 67.5,67.5C 67.5,92.8333 67.5,118.167 67.5,143.5C 67.1667,143.5 66.8333,143.5 66.5,143.5C 66.8111,117.312 66.4778,91.145 65.5,65C 65.4235,62.2439 66.7569,61.0772 69.5,61.5 Z"/></g>
<g><path style="opacity:1" fill="#fdf1d7" d="M 127.5,63.5 C 127.5,63.1667 127.5,62.8333 127.5,62.5C 143.837,62.3334 160.17,62.5001 176.5,63C 180.956,62.8982 184.956,63.7316 188.5,65.5C 176.17,65.0668 163.837,64.7335 151.5,64.5C 143.534,63.6351 135.534,63.3018 127.5,63.5 Z"/></g>
<g><path style="opacity:1" fill="#2285ec" d="M 245.5,62.5 C 247.507,70.8112 245.674,78.1445 240,84.5C 239.601,84.2716 239.435,83.9382 239.5,83.5C 239.649,82.448 239.483,81.448 239,80.5C 236.376,85.9352 234.209,85.7685 232.5,80C 231.216,79.3162 230.049,79.4829 229,80.5C 230.19,77.7274 229.524,75.3941 227,73.5C 226.814,70.9644 226.314,68.631 225.5,66.5C 225.821,61.3054 225.487,56.3054 224.5,51.5C 221.36,50.3592 218.027,50.1925 214.5,51C 212.308,52.0669 210.642,53.5669 209.5,55.5C 208.5,55.5 207.5,55.5 206.5,55.5C 206.5,56.5 206.5,57.5 206.5,58.5C 204.712,58.7852 203.045,58.4519 201.5,57.5C 200.221,55.8539 198.555,54.6872 196.5,54C 198.5,53.3333 199.833,52 200.5,50C 201.448,49.5172 202.448,49.3505 203.5,49.5C 202.891,46.1216 204.224,44.1216 207.5,43.5C 207.833,42.8333 208.167,42.1667 208.5,41.5C 209.391,40.8902 210.391,40.5569 211.5,40.5C 228.932,38.2249 240.265,45.5582 245.5,62.5 Z"/></g>
<g><path style="opacity:1" fill="#1b7bec" d="M 234.5,47.5 C 242.359,54.5798 244.859,63.2465 242,73.5C 241.667,72.8333 241.333,72.1667 241,71.5C 240.259,72.6405 239.425,72.6405 238.5,71.5C 237.686,69.2338 237.186,66.9005 237,64.5C 236.667,65.5 236.333,66.5 236,67.5C 235.696,65.5595 234.863,63.8928 233.5,62.5C 234.381,61.0295 235.714,60.1962 237.5,60C 236.62,58.6439 236.286,57.1439 236.5,55.5C 234.801,55.3398 233.134,55.5065 231.5,56C 230.782,57.9874 229.782,59.8208 228.5,61.5C 227.16,60.3122 226.493,58.8122 226.5,57C 227.45,54.765 227.45,52.5984 226.5,50.5C 220.89,48.4127 215.223,48.0794 209.5,49.5C 209.5,48.8333 209.5,48.1667 209.5,47.5C 215.425,46.0143 221.425,45.5143 227.5,46C 229.664,46.9143 231.664,48.081 233.5,49.5C 234.298,49.0431 234.631,48.3764 234.5,47.5 Z"/></g>
<g><path style="opacity:1" fill="#4893df" d="M 224.5,51.5 C 222.901,51.2322 221.568,51.5655 220.5,52.5C 216.901,53.6988 213.235,54.6988 209.5,55.5C 210.642,53.5669 212.308,52.0669 214.5,51C 218.027,50.1925 221.36,50.3592 224.5,51.5 Z"/></g>
<g><path style="opacity:1" fill="#116ce3" d="M 223.5,42.5 C 216.436,41.2842 210.436,43.1175 205.5,48C 206.819,48.195 208.153,48.0283 209.5,47.5C 209.5,48.1667 209.5,48.8333 209.5,49.5C 207.856,49.2865 206.356,49.6198 205,50.5C 204.333,49.1667 204.333,47.8333 205,46.5C 206.045,45.6266 206.878,44.6266 207.5,43.5C 212.834,41.3865 218.167,41.0531 223.5,42.5 Z"/></g>
<g><path style="opacity:1" fill="#065bda" d="M 223.5,42.5 C 227.459,43.5942 231.125,45.2609 234.5,47.5C 234.631,48.3764 234.298,49.0431 233.5,49.5C 231.664,48.081 229.664,46.9143 227.5,46C 221.425,45.5143 215.425,46.0143 209.5,47.5C 208.153,48.0283 206.819,48.195 205.5,48C 210.436,43.1175 216.436,41.2842 223.5,42.5 Z"/></g>
<g><path style="opacity:1" fill="#f0cf5c" d="M 69.5,63.5 C 83.3379,62.4225 97.3379,62.4225 111.5,63.5C 116.833,63.5 122.167,63.5 127.5,63.5C 127.5,63.8333 127.5,64.1667 127.5,64.5C 122.167,64.5 116.833,64.5 111.5,64.5C 97.4966,64.2824 83.4966,63.9491 69.5,63.5 Z"/></g>
<g><path style="opacity:1" fill="#208fe9" d="M 208.5,41.5 C 208.167,42.1667 207.833,42.8333 207.5,43.5C 204.224,44.1216 202.891,46.1216 203.5,49.5C 202.448,49.3505 201.448,49.5172 200.5,50C 199.833,52 198.5,53.3333 196.5,54C 198.555,54.6872 200.221,55.8539 201.5,57.5C 203.045,58.4519 204.712,58.7852 206.5,58.5C 206.5,57.5 206.5,56.5 206.5,55.5C 207.5,55.5 208.5,55.5 209.5,55.5C 209.5,55.8333 209.5,56.1667 209.5,56.5C 207.744,57.5521 207.077,59.2188 207.5,61.5C 210.388,60.9898 212.721,61.6565 214.5,63.5C 213.044,65.7094 211.544,68.0427 210,70.5C 208.676,68.5 207.009,66.8334 205,65.5C 204.692,66.3081 204.192,66.9747 203.5,67.5C 202.534,65.2108 201.201,63.2108 199.5,61.5C 200.43,59.8953 200.43,58.3953 199.5,57C 198.256,56.5439 197.423,57.0439 197,58.5C 196.617,57.944 196.117,57.6107 195.5,57.5C 195.287,54.5491 195.954,51.8825 197.5,49.5C 200.167,47.5 202.5,45.1667 204.5,42.5C 205.833,42.1667 207.167,41.8333 208.5,41.5 Z"/></g>
<g><path style="opacity:1" fill="#fbe08c" d="M 127.5,64.5 C 127.5,64.1667 127.5,63.8333 127.5,63.5C 135.534,63.3018 143.534,63.6351 151.5,64.5C 151.5,64.8333 151.5,65.1667 151.5,65.5C 143.471,65.6563 135.471,65.323 127.5,64.5 Z"/></g>
<g><path style="opacity:1" fill="#d8f7fe" d="M 220.5,52.5 C 221.5,52.5 222.5,52.5 223.5,52.5C 223.5,62.8333 223.5,73.1667 223.5,83.5C 221.167,83.5 218.833,83.5 216.5,83.5C 216.5,75.8333 216.5,68.1667 216.5,60.5C 214.167,60.5 211.833,60.5 209.5,60.5C 209.5,59.1667 209.5,57.8333 209.5,56.5C 209.5,56.1667 209.5,55.8333 209.5,55.5C 213.235,54.6988 216.901,53.6988 220.5,52.5 Z"/></g>
<g><path style="opacity:1" fill="#fce393" d="M 151.5,65.5 C 151.5,65.1667 151.5,64.8333 151.5,64.5C 163.837,64.7335 176.17,65.0668 188.5,65.5C 189.167,65.5 189.833,65.5 190.5,65.5C 190.5,66.1667 190.833,66.5 191.5,66.5C 191.5,67.1667 191.5,67.8333 191.5,68.5C 190.234,67.9101 188.901,67.4101 187.5,67C 175.488,66.6425 163.488,66.1425 151.5,65.5 Z"/></g>
<g><path style="opacity:1" fill="#e9ecef" d="M 216.5,54.5 C 218.5,54.5 220.5,54.5 222.5,54.5C 222.687,63.8612 222.354,73.1945 221.5,82.5C 220.167,82.5 218.833,82.5 217.5,82.5C 217.5,74.5 217.5,66.5 217.5,58.5C 215.396,58.7989 213.396,58.4656 211.5,57.5C 213.36,56.6751 215.026,55.6751 216.5,54.5 Z"/></g>
<g><path style="opacity:1" fill="#f9ca2e" d="M 69.5,63.5 C 83.4966,63.9491 97.4966,64.2824 111.5,64.5C 134.169,65.9504 157.002,67.2837 180,68.5C 182.929,68.5248 185.429,69.1914 187.5,70.5C 147.957,68.75 108.457,67.4167 69,66.5C 68.6012,66.7284 68.4346,67.0618 68.5,67.5C 68.1667,67.5 67.8333,67.5 67.5,67.5C 66.7659,66.2921 66.4326,64.9587 66.5,63.5C 67.5,63.5 68.5,63.5 69.5,63.5 Z"/></g>
<g><path style="opacity:1" fill="#edc541" d="M 111.5,64.5 C 116.833,64.5 122.167,64.5 127.5,64.5C 135.471,65.323 143.471,65.6563 151.5,65.5C 163.488,66.1425 175.488,66.6425 187.5,67C 188.901,67.4101 190.234,67.9101 191.5,68.5C 191.5,70.1667 191.5,71.8333 191.5,73.5C 191.517,75.5648 191.85,77.5648 192.5,79.5C 191.5,79.1667 190.833,78.5 190.5,77.5C 190.279,75.3364 189.279,73.6697 187.5,72.5C 188.506,72.0623 188.506,71.3957 187.5,70.5C 185.429,69.1914 182.929,68.5248 180,68.5C 157.002,67.2837 134.169,65.9504 111.5,64.5 Z"/></g>
<g><path style="opacity:1" fill="#1c99ed" d="M 214.5,63.5 C 214.5,65.1667 214.5,66.8333 214.5,68.5C 212.275,71.7043 211.108,75.3709 211,79.5C 208.592,76.2679 206.926,72.6012 206,68.5C 205,70.8333 204,73.1667 203,75.5C 201.641,74.635 200.474,73.635 199.5,72.5C 198.839,69.2129 198.339,65.8796 198,62.5C 197.005,61.9341 196.172,61.2674 195.5,60.5C 195.5,59.5 195.5,58.5 195.5,57.5C 196.117,57.6107 196.617,57.944 197,58.5C 197.423,57.0439 198.256,56.5439 199.5,57C 200.43,58.3953 200.43,59.8953 199.5,61.5C 201.201,63.2108 202.534,65.2108 203.5,67.5C 204.192,66.9747 204.692,66.3081 205,65.5C 207.009,66.8334 208.676,68.5 210,70.5C 211.544,68.0427 213.044,65.7094 214.5,63.5 Z"/></g>
<g><path style="opacity:1" fill="#f3bc18" d="M 187.5,70.5 C 188.506,71.3957 188.506,72.0623 187.5,72.5C 185.208,72.2436 183.041,72.5769 181,73.5C 176.369,71.7283 171.536,71.0616 166.5,71.5C 134.254,70.962 101.587,70.2954 68.5,69.5C 68.5,68.8333 68.5,68.1667 68.5,67.5C 68.4346,67.0618 68.6012,66.7284 69,66.5C 108.457,67.4167 147.957,68.75 187.5,70.5 Z"/></g>
<g><path style="opacity:1" fill="#f0b102" d="M 68.5,70.5 C 68.5,70.1667 68.5,69.8333 68.5,69.5C 101.587,70.2954 134.254,70.962 166.5,71.5C 159.751,73.4469 152.751,73.7802 145.5,72.5C 135.5,73 125.5,73.5 115.5,74C 113.276,76.1486 111.776,75.6486 111,72.5C 109.769,73.1078 108.436,73.4411 107,73.5C 99.7852,72.6329 92.7852,71.9663 86,71.5C 83.5393,72.2181 81.0393,72.8847 78.5,73.5C 75.9044,72.5178 73.2377,71.8511 70.5,71.5C 69.8333,71.1667 69.1667,70.8333 68.5,70.5 Z"/></g>
<g><path style="opacity:1" fill="#33b2f9" d="M 195.5,60.5 C 196.172,61.2674 197.005,61.9341 198,62.5C 198.339,65.8796 198.839,69.2129 199.5,72.5C 197.544,70.8249 196.211,71.1582 195.5,73.5C 194.527,71.0521 194.194,68.3854 194.5,65.5C 194.216,63.5853 194.549,61.9187 195.5,60.5 Z"/></g>
<g><path style="opacity:1" fill="#81bcec" d="M 220.5,52.5 C 221.568,51.5655 222.901,51.2322 224.5,51.5C 224.828,62.3464 224.494,73.0131 223.5,83.5C 223.5,73.1667 223.5,62.8333 223.5,52.5C 222.5,52.5 221.5,52.5 220.5,52.5 Z"/></g>
<g><path style="opacity:1" fill="#529edc" d="M 224.5,51.5 C 225.487,56.3054 225.821,61.3054 225.5,66.5C 225.5,72.5 225.5,78.5 225.5,84.5C 223.265,84.2053 221.265,84.5386 219.5,85.5C 217.856,85.7135 216.356,85.3802 215,84.5C 214.501,79.1771 214.334,73.8437 214.5,68.5C 214.5,66.8333 214.5,65.1667 214.5,63.5C 212.721,61.6565 210.388,60.9898 207.5,61.5C 207.077,59.2188 207.744,57.5521 209.5,56.5C 209.5,57.8333 209.5,59.1667 209.5,60.5C 211.833,60.5 214.167,60.5 216.5,60.5C 216.5,68.1667 216.5,75.8333 216.5,83.5C 218.833,83.5 221.167,83.5 223.5,83.5C 224.494,73.0131 224.828,62.3464 224.5,51.5 Z"/></g>
<g><path style="opacity:1" fill="#efab01" d="M 70.5,71.5 C 73.2377,71.8511 75.9044,72.5178 78.5,73.5C 81.0393,72.8847 83.5393,72.2181 86,71.5C 92.7852,71.9663 99.7852,72.6329 107,73.5C 108.436,73.4411 109.769,73.1078 111,72.5C 111.776,75.6486 113.276,76.1486 115.5,74C 125.5,73.5 135.5,73 145.5,72.5C 152.751,73.7802 159.751,73.4469 166.5,71.5C 171.536,71.0616 176.369,71.7283 181,73.5C 183.041,72.5769 185.208,72.2436 187.5,72.5C 189.279,73.6697 190.279,75.3364 190.5,77.5C 188.266,77.6199 186.099,77.2865 184,76.5C 182.374,77.2887 180.874,78.2887 179.5,79.5C 178.205,78.9017 176.872,78.4017 175.5,78C 177.271,77.4646 177.604,76.6313 176.5,75.5C 175.186,76.3128 174.019,77.3128 173,78.5C 172.333,77.1667 171.667,77.1667 171,78.5C 170.374,76.0087 169.541,76.0087 168.5,78.5C 161.087,77.5552 153.254,77.5552 145,78.5C 144.196,77.1955 143.029,76.5288 141.5,76.5C 138.392,77.2565 135.059,77.5898 131.5,77.5C 128.103,75.7419 124.937,75.0753 122,75.5C 115.111,79.3408 107.944,80.0075 100.5,77.5C 93.6682,78.4499 87.0015,79.1166 80.5,79.5C 78.4689,78.4613 77.1355,76.7946 76.5,74.5C 74.9547,73.5481 73.288,73.2148 71.5,73.5C 71.1667,72.8333 70.8333,72.1667 70.5,71.5 Z"/></g>
<g><path style="opacity:1" fill="#2596eb" d="M 225.5,66.5 C 226.314,68.631 226.814,70.9644 227,73.5C 229.524,75.3941 230.19,77.7274 229,80.5C 230.049,79.4829 231.216,79.3162 232.5,80C 234.209,85.7685 236.376,85.9352 239,80.5C 239.483,81.448 239.649,82.448 239.5,83.5C 237.891,87.0463 235.557,90.0463 232.5,92.5C 231.833,92.5 231.5,92.1667 231.5,91.5C 232.29,90.2058 233.29,89.0391 234.5,88C 232.122,88.5747 229.622,89.0747 227,89.5C 224.332,88.5206 221.832,87.1873 219.5,85.5C 221.265,84.5386 223.265,84.2053 225.5,84.5C 225.5,78.5 225.5,72.5 225.5,66.5 Z"/></g>
<g><path style="opacity:1" fill="#56cefc" d="M 199.5,72.5 C 201.944,82.1108 207.944,88.2774 217.5,91C 221.025,91.1787 224.359,91.6787 227.5,92.5C 226.508,92.3284 225.842,92.6618 225.5,93.5C 210.452,94.4589 200.452,87.7923 195.5,73.5C 196.211,71.1582 197.544,70.8249 199.5,72.5 Z"/></g>
<g><path style="opacity:0.004" fill="#fefffe" d="M 315.5,76.5 C 316.833,77.1667 316.833,77.1667 315.5,76.5 Z"/></g>
<g><path style="opacity:1" fill="#eca401" d="M 71.5,73.5 C 73.288,73.2148 74.9547,73.5481 76.5,74.5C 77.1355,76.7946 78.4689,78.4613 80.5,79.5C 87.0015,79.1166 93.6682,78.4499 100.5,77.5C 107.944,80.0075 115.111,79.3408 122,75.5C 124.937,75.0753 128.103,75.7419 131.5,77.5C 135.059,77.5898 138.392,77.2565 141.5,76.5C 143.029,76.5288 144.196,77.1955 145,78.5C 153.254,77.5552 161.087,77.5552 168.5,78.5C 169.541,76.0087 170.374,76.0087 171,78.5C 171.667,77.1667 172.333,77.1667 173,78.5C 174.019,77.3128 175.186,76.3128 176.5,75.5C 177.604,76.6313 177.271,77.4646 175.5,78C 176.872,78.4017 178.205,78.9017 179.5,79.5C 180.874,78.2887 182.374,77.2887 184,76.5C 186.099,77.2865 188.266,77.6199 190.5,77.5C 190.833,78.5 191.5,79.1667 192.5,79.5C 190.552,80.1312 188.719,81.1312 187,82.5C 186.195,80.0989 185.362,80.2656 184.5,83C 181.954,84.4396 179.287,85.6062 176.5,86.5C 175.713,85.7579 175.047,84.9246 174.5,84C 165.628,83.5687 156.795,82.7354 148,81.5C 145.044,83.2362 141.71,84.2362 138,84.5C 126.511,85.2065 115.011,85.7065 103.5,86C 98.2063,86.8178 98.2063,87.3178 103.5,87.5C 103.5,90.1667 103.5,92.8333 103.5,95.5C 104.833,95.5 106.167,95.5 107.5,95.5C 107.975,98.0821 107.308,100.082 105.5,101.5C 104.25,101.577 103.417,102.244 103,103.5C 100.54,102.245 99.373,100.245 99.5,97.5C 97.2776,97.822 95.4443,97.1554 94,95.5C 93.3292,96.2524 92.4959,96.5858 91.5,96.5C 88.0439,94.1449 85.3772,90.9782 83.5,87C 82.552,86.5172 81.552,86.3505 80.5,86.5C 77.3174,82.2659 74.3174,77.9326 71.5,73.5 Z"/></g>
<g><path style="opacity:1" fill="#b5ac56" d="M 191.5,73.5 C 193.074,75.1016 193.741,77.1016 193.5,79.5C 193.167,79.5 192.833,79.5 192.5,79.5C 191.85,77.5648 191.517,75.5648 191.5,73.5 Z"/></g>
<g><path style="opacity:1" fill="#57817a" d="M 191.5,66.5 C 192.167,66.8333 192.833,67.1667 193.5,67.5C 193.97,78.4399 198.636,87.1066 207.5,93.5C 206.833,93.5 206.167,93.5 205.5,93.5C 204.508,93.6716 203.842,93.3382 203.5,92.5C 201.833,90.1667 199.833,88.1667 197.5,86.5C 197.672,85.5084 197.338,84.8417 196.5,84.5C 195.89,82.5659 194.89,80.8993 193.5,79.5C 193.741,77.1016 193.074,75.1016 191.5,73.5C 191.5,71.8333 191.5,70.1667 191.5,68.5C 191.5,67.8333 191.5,67.1667 191.5,66.5 Z"/></g>
<g><path style="opacity:1" fill="#39a6da" d="M 194.5,65.5 C 194.194,68.3854 194.527,71.0521 195.5,73.5C 200.452,87.7923 210.452,94.4589 225.5,93.5C 222.375,94.4794 219.042,94.8128 215.5,94.5C 212.763,94.5987 210.096,94.2653 207.5,93.5C 198.636,87.1066 193.97,78.4399 193.5,67.5C 193.328,66.5084 193.662,65.8417 194.5,65.5 Z"/></g>
<g><path style="opacity:1" fill="#20a2ed" d="M 214.5,68.5 C 214.334,73.8437 214.501,79.1771 215,84.5C 216.356,85.3802 217.856,85.7135 219.5,85.5C 221.832,87.1873 224.332,88.5206 227,89.5C 229.622,89.0747 232.122,88.5747 234.5,88C 233.29,89.0391 232.29,90.2058 231.5,91.5C 230.041,91.4326 228.708,91.7659 227.5,92.5C 224.359,91.6787 221.025,91.1787 217.5,91C 207.944,88.2774 201.944,82.1108 199.5,72.5C 200.474,73.635 201.641,74.635 203,75.5C 204,73.1667 205,70.8333 206,68.5C 206.926,72.6012 208.592,76.2679 211,79.5C 211.108,75.3709 212.275,71.7043 214.5,68.5 Z"/></g>
<g><path style="opacity:1" fill="#2f86da" d="M 245.5,62.5 C 246.117,62.6107 246.617,62.944 247,63.5C 247.499,67.1516 247.665,70.8183 247.5,74.5C 246.673,77.1317 245.84,79.7983 245,82.5C 241.998,86.3338 238.831,90.0005 235.5,93.5C 234.833,93.5 234.167,93.5 233.5,93.5C 233.5,92.8333 233.167,92.5 232.5,92.5C 235.557,90.0463 237.891,87.0463 239.5,83.5C 239.435,83.9382 239.601,84.2716 240,84.5C 245.674,78.1445 247.507,70.8112 245.5,62.5 Z"/></g>
<g><path style="opacity:1" fill="#ea9f01" d="M 192.5,79.5 C 192.833,79.5 193.167,79.5 193.5,79.5C 193.241,81.9893 194.241,83.656 196.5,84.5C 197.338,84.8417 197.672,85.5084 197.5,86.5C 198.075,88.4113 199.075,90.078 200.5,91.5C 198.199,90.9396 195.866,90.4396 193.5,90C 192.874,89.2496 192.374,88.4162 192,87.5C 191.433,90.1677 190.933,92.8344 190.5,95.5C 187.892,95.6056 185.892,96.7723 184.5,99C 181.518,99.498 178.518,99.6646 175.5,99.5C 175.5,100.833 175.5,102.167 175.5,103.5C 172.167,103.5 168.833,103.5 165.5,103.5C 165.785,107.025 165.119,110.358 163.5,113.5C 165.126,116.128 167.126,118.461 169.5,120.5C 170.887,124.694 172.221,128.861 173.5,133C 172.52,136.141 170.52,138.308 167.5,139.5C 167.709,140.086 168.043,140.586 168.5,141C 166.652,142.518 165.152,144.351 164,146.5C 161.232,148.796 158.399,150.796 155.5,152.5C 154.522,152.189 153.855,151.522 153.5,150.5C 156.606,148.511 159.606,146.511 162.5,144.5C 159.467,142.358 156.467,142.691 153.5,145.5C 147.719,142.414 144.386,137.748 143.5,131.5C 138.167,131.5 132.833,131.5 127.5,131.5C 127.5,130.167 127.5,128.833 127.5,127.5C 129.604,127.799 131.604,127.466 133.5,126.5C 131.833,124.833 130.167,123.167 128.5,121.5C 127.833,122.167 127.167,122.833 126.5,123.5C 124.999,122.248 123.332,121.248 121.5,120.5C 120.047,117.702 119.047,114.702 118.5,111.5C 115.833,108.833 113.167,106.167 110.5,103.5C 109.402,102.385 108.235,102.385 107,103.5C 105.97,103.164 105.47,102.497 105.5,101.5C 107.308,100.082 107.975,98.0821 107.5,95.5C 106.167,95.5 104.833,95.5 103.5,95.5C 103.5,92.8333 103.5,90.1667 103.5,87.5C 98.2063,87.3178 98.2063,86.8178 103.5,86C 115.011,85.7065 126.511,85.2065 138,84.5C 141.71,84.2362 145.044,83.2362 148,81.5C 156.795,82.7354 165.628,83.5687 174.5,84C 175.047,84.9246 175.713,85.7579 176.5,86.5C 179.287,85.6062 181.954,84.4396 184.5,83C 185.362,80.2656 186.195,80.0989 187,82.5C 188.719,81.1312 190.552,80.1312 192.5,79.5 Z"/></g>
<g><path style="opacity:1" fill="#90b9ec" d="M 248.5,61.5 C 249.664,67.3494 249.664,73.3494 248.5,79.5C 248.313,81.5643 247.813,83.5643 247,85.5C 243.014,87.9928 239.18,90.6594 235.5,93.5C 238.831,90.0005 241.998,86.3338 245,82.5C 245.84,79.7983 246.673,77.1317 247.5,74.5C 248.485,70.3656 248.818,66.0323 248.5,61.5 Z"/></g>
<g><path style="opacity:1" fill="#b6a150" d="M 193.5,79.5 C 194.89,80.8993 195.89,82.5659 196.5,84.5C 194.241,83.656 193.241,81.9893 193.5,79.5 Z"/></g>
<g><path style="opacity:1" fill="#e9a601" d="M 69.5,86.5 C 73.7075,86.8704 76.2075,89.2037 77,93.5C 77.414,93.0426 77.914,92.7093 78.5,92.5C 79.9842,94.0737 81.6508,95.407 83.5,96.5C 84.3078,98.4233 84.8078,100.423 85,102.5C 86.0674,103.191 87.2341,103.691 88.5,104C 87.8042,105.488 88.1375,106.988 89.5,108.5C 91.8505,109.861 94.1838,111.194 96.5,112.5C 95.3926,116.629 96.8926,119.629 101,121.5C 102.113,122.76 102.28,123.927 101.5,125C 102.373,126.045 103.373,126.878 104.5,127.5C 102.849,128.97 101.015,130.303 99,131.5C 98.6667,130.833 98.3333,130.167 98,129.5C 96.2942,130.308 95.4609,131.641 95.5,133.5C 90.1538,133.131 88.8205,130.798 91.5,126.5C 89.1667,121.5 85.5,117.833 80.5,115.5C 79.208,118.619 77.708,121.619 76,124.5C 75.5007,119.511 75.3341,114.511 75.5,109.5C 75.3695,104.319 75.3695,99.3187 75.5,94.5C 74.4143,90.9281 72.4143,88.2614 69.5,86.5 Z"/></g>
<g><path style="opacity:1" fill="#bca25a" d="M 197.5,86.5 C 199.833,88.1667 201.833,90.1667 203.5,92.5C 202.391,92.4431 201.391,92.1098 200.5,91.5C 199.075,90.078 198.075,88.4113 197.5,86.5 Z"/></g>
<g><path style="opacity:1" fill="#e99902" d="M 200.5,91.5 C 201.391,92.1098 202.391,92.4431 203.5,92.5C 203.842,93.3382 204.508,93.6716 205.5,93.5C 206.687,95.9754 208.687,96.9754 211.5,96.5C 211.833,97.1667 212.167,97.8333 212.5,98.5C 211.305,98.3225 210.138,97.9891 209,97.5C 207.7,99.4593 205.867,100.626 203.5,101C 199.046,107.312 194.712,113.812 190.5,120.5C 189.583,121.127 188.583,121.461 187.5,121.5C 183.408,122.534 182.075,124.868 183.5,128.5C 184.656,131.767 185.823,135.101 187,138.5C 188.757,139.119 189.924,140.286 190.5,142C 191.22,145.719 191.22,149.552 190.5,153.5C 188.4,153.523 186.567,152.856 185,151.5C 181.456,154.108 177.956,154.108 174.5,151.5C 171.734,152.93 169.068,154.43 166.5,156C 165.299,156.903 164.465,158.069 164,159.5C 162.989,158.663 161.822,158.33 160.5,158.5C 168.24,152.595 175.24,145.762 181.5,138C 180.167,137 180.167,136 181.5,135C 180.667,133.5 179.5,132.333 178,131.5C 174.427,135.778 170.261,141.111 165.5,147.5C 162.216,150.796 158.549,153.463 154.5,155.5C 155.11,154.609 155.443,153.609 155.5,152.5C 158.399,150.796 161.232,148.796 164,146.5C 165.152,144.351 166.652,142.518 168.5,141C 168.043,140.586 167.709,140.086 167.5,139.5C 170.52,138.308 172.52,136.141 173.5,133C 172.221,128.861 170.887,124.694 169.5,120.5C 167.126,118.461 165.126,116.128 163.5,113.5C 165.119,110.358 165.785,107.025 165.5,103.5C 168.833,103.5 172.167,103.5 175.5,103.5C 175.5,102.167 175.5,100.833 175.5,99.5C 178.518,99.6646 181.518,99.498 184.5,99C 185.892,96.7723 187.892,95.6056 190.5,95.5C 190.933,92.8344 191.433,90.1677 192,87.5C 192.374,88.4162 192.874,89.2496 193.5,90C 195.866,90.4396 198.199,90.9396 200.5,91.5 Z"/></g>
<g><path style="opacity:0.004" fill="#fefffe" d="M 2.5,93.5 C 3.83333,94.1667 3.83333,94.1667 2.5,93.5 Z"/></g>
<g><path style="opacity:1" fill="#9d9162" d="M 205.5,93.5 C 206.167,93.5 206.833,93.5 207.5,93.5C 208.59,94.8571 209.924,95.8571 211.5,96.5C 208.687,96.9754 206.687,95.9754 205.5,93.5 Z"/></g>
<g><path style="opacity:1" fill="#328fca" d="M 231.5,91.5 C 231.5,92.1667 231.833,92.5 232.5,92.5C 233.167,92.5 233.5,92.8333 233.5,93.5C 232.833,94.1667 232.167,94.8333 231.5,95.5C 229.784,95.6287 228.117,95.962 226.5,96.5C 222.351,97.0803 218.684,96.4136 215.5,94.5C 219.042,94.8128 222.375,94.4794 225.5,93.5C 225.842,92.6618 226.508,92.3284 227.5,92.5C 228.708,91.7659 230.041,91.4326 231.5,91.5 Z"/></g>
<g><path style="opacity:1" fill="#c89222" d="M 67.5,67.5 C 67.8333,67.5 68.1667,67.5 68.5,67.5C 68.5,68.1667 68.5,68.8333 68.5,69.5C 68.5,69.8333 68.5,70.1667 68.5,70.5C 68.7281,105.501 69.0614,140.501 69.5,175.5C 71.5,175.5 73.5,175.5 75.5,175.5C 75.5774,176.75 76.244,177.583 77.5,178C 91.8182,178.976 106.152,179.642 120.5,180C 127.61,181.283 134.61,182.45 141.5,183.5C 136.833,183.5 132.167,183.5 127.5,183.5C 125.5,183.5 123.5,183.5 121.5,183.5C 109.372,181.802 97.0383,180.802 84.5,180.5C 80.7307,180.756 77.0641,180.423 73.5,179.5C 72.3588,178.661 71.0255,177.994 69.5,177.5C 68.8333,166.007 68.1667,154.674 67.5,143.5C 67.5,118.167 67.5,92.8333 67.5,67.5 Z"/></g>
<g><path style="opacity:1" fill="#527888" d="M 207.5,93.5 C 210.096,94.2653 212.763,94.5987 215.5,94.5C 218.684,96.4136 222.351,97.0803 226.5,96.5C 226.5,96.8333 226.5,97.1667 226.5,97.5C 226.167,97.5 225.833,97.5 225.5,97.5C 220.77,97.7166 216.103,97.3833 211.5,96.5C 209.924,95.8571 208.59,94.8571 207.5,93.5 Z"/></g>
<g><path style="opacity:1" fill="#b8ab7a" d="M 231.5,95.5 C 232.167,95.5 232.833,95.5 233.5,95.5C 233.5,95.8333 233.5,96.1667 233.5,96.5C 232.209,96.2627 231.209,96.596 230.5,97.5C 229.167,97.5 227.833,97.5 226.5,97.5C 226.5,97.1667 226.5,96.8333 226.5,96.5C 228.117,95.962 229.784,95.6287 231.5,95.5 Z"/></g>
<g><path style="opacity:1" fill="#ab8f5d" d="M 211.5,96.5 C 216.103,97.3833 220.77,97.7166 225.5,97.5C 225.5,97.8333 225.5,98.1667 225.5,98.5C 221.167,98.5 216.833,98.5 212.5,98.5C 212.167,97.8333 211.833,97.1667 211.5,96.5 Z"/></g>
<g><path style="opacity:1" fill="#ebeaf0" d="M 249.5,189.5 C 246.843,189.838 244.51,189.171 242.5,187.5C 241.749,188.376 241.249,189.376 241,190.5C 238.959,189.577 236.792,189.244 234.5,189.5C 235.209,188.596 236.209,188.263 237.5,188.5C 237.216,185.223 237.549,182.057 238.5,179C 237.484,178.481 236.818,177.647 236.5,176.5C 237.015,160.198 238.015,144.031 239.5,128C 238.709,120.298 237.709,112.632 236.5,105C 236.53,102.576 236.863,100.243 237.5,98C 236.756,96.9614 235.756,96.4614 234.5,96.5C 234.167,96.5 233.833,96.5 233.5,96.5C 233.5,96.1667 233.5,95.8333 233.5,95.5C 237.143,95.5219 240.476,94.5219 243.5,92.5C 246.393,86.2231 247.893,86.2231 248,92.5C 243.742,94.2556 240.242,96.9223 237.5,100.5C 238,100.833 238.5,101.167 239,101.5C 240.394,100.387 241.561,99.0534 242.5,97.5C 244.67,99.0862 247.004,100.42 249.5,101.5C 251.741,100.929 253.408,99.5958 254.5,97.5C 254.833,98.5 255.167,99.5 255.5,100.5C 254.639,103.368 252.972,105.702 250.5,107.5C 248.561,113.157 249.894,117.824 254.5,121.5C 255.666,133.82 255.833,146.153 255,158.5C 253.301,159.406 251.467,159.739 249.5,159.5C 249.5,164.833 249.5,170.167 249.5,175.5C 248.022,175.238 246.689,175.571 245.5,176.5C 248.958,180.078 250.291,184.411 249.5,189.5 Z"/></g>
<g><path style="opacity:1" fill="#d88a00" d="M 71.5,73.5 C 74.3174,77.9326 77.3174,82.2659 80.5,86.5C 90.6672,100.285 100.834,113.952 111,127.5C 111.5,128.5 112,129.5 112.5,130.5C 112.154,131.696 111.654,131.696 111,130.5C 106.867,123.881 102.034,117.881 96.5,112.5C 88.2308,99.6262 79.2308,87.2929 69.5,75.5C 69.5,74.1667 70.1667,73.5 71.5,73.5 Z"/></g>
<g><path style="opacity:1" fill="#e6a102" d="M 105.5,101.5 C 105.47,102.497 105.97,103.164 107,103.5C 108.235,102.385 109.402,102.385 110.5,103.5C 113.167,106.167 115.833,108.833 118.5,111.5C 119.047,114.702 120.047,117.702 121.5,120.5C 123.332,121.248 124.999,122.248 126.5,123.5C 127.167,122.833 127.833,122.167 128.5,121.5C 130.167,123.167 131.833,124.833 133.5,126.5C 131.604,127.466 129.604,127.799 127.5,127.5C 127.5,128.833 127.5,130.167 127.5,131.5C 132.833,131.5 138.167,131.5 143.5,131.5C 144.386,137.748 147.719,142.414 153.5,145.5C 156.467,142.691 159.467,142.358 162.5,144.5C 159.606,146.511 156.606,148.511 153.5,150.5C 153.855,151.522 154.522,152.189 155.5,152.5C 155.443,153.609 155.11,154.609 154.5,155.5C 144.564,158.846 135.898,156.846 128.5,149.5C 124.022,143.913 119.522,138.246 115,132.5C 114.28,130.888 114.446,129.388 115.5,128C 110.776,125.367 108.609,121.534 109,116.5C 107.657,117.214 106.324,116.88 105,115.5C 104.013,111.711 102.18,109.211 99.5,108C 100.634,106.984 100.301,106.317 98.5,106C 100.595,105.444 100.762,104.944 99,104.5C 98.0546,104.905 97.3879,105.572 97,106.5C 95.6345,102.898 93.8012,99.5646 91.5,96.5C 92.4959,96.5858 93.3292,96.2524 94,95.5C 95.4443,97.1554 97.2776,97.822 99.5,97.5C 99.373,100.245 100.54,102.245 103,103.5C 103.417,102.244 104.25,101.577 105.5,101.5 Z"/></g>
<g><path style="opacity:1" fill="#eb8601" d="M 212.5,98.5 C 213.141,99.4822 213.807,100.482 214.5,101.5C 213.469,102.7 212.635,104.034 212,105.5C 205.928,111.205 200.595,117.538 196,124.5C 194.989,125.337 193.822,125.67 192.5,125.5C 192.271,127.433 191.438,129.1 190,130.5C 186.018,127.986 185.185,124.986 187.5,121.5C 188.583,121.461 189.583,121.127 190.5,120.5C 194.712,113.812 199.046,107.312 203.5,101C 205.867,100.626 207.7,99.4593 209,97.5C 210.138,97.9891 211.305,98.3225 212.5,98.5 Z"/></g>
<g><path style="opacity:1" fill="#e89303" d="M 212.5,98.5 C 216.833,98.5 221.167,98.5 225.5,98.5C 226.5,98.5 227.5,98.5 228.5,98.5C 227.972,99.7206 227.305,100.887 226.5,102C 227.624,102.249 228.624,102.749 229.5,103.5C 229.333,103.833 229.167,104.167 229,104.5C 226.674,104.88 224.841,105.88 223.5,107.5C 222.064,108.429 220.731,109.595 219.5,111C 220.308,111.308 220.975,111.808 221.5,112.5C 219.433,113.134 217.6,114.134 216,115.5C 215.667,115.167 215.333,114.833 215,114.5C 214.92,116.248 214.087,117.915 212.5,119.5C 211.549,118.674 210.549,118.508 209.5,119C 210.517,120.049 210.684,121.216 210,122.5C 208.833,124.167 207.667,125.833 206.5,127.5C 205.833,126.5 205.167,125.5 204.5,124.5C 203.146,128.229 200.812,130.229 197.5,130.5C 199.993,132.248 199.827,133.914 197,135.5C 196.586,135.043 196.086,134.709 195.5,134.5C 194.727,137.256 193.393,136.922 191.5,133.5C 190.311,132.571 188.978,132.238 187.5,132.5C 186.5,130.833 185.167,129.5 183.5,128.5C 182.075,124.868 183.408,122.534 187.5,121.5C 185.185,124.986 186.018,127.986 190,130.5C 191.438,129.1 192.271,127.433 192.5,125.5C 193.822,125.67 194.989,125.337 196,124.5C 200.595,117.538 205.928,111.205 212,105.5C 212.635,104.034 213.469,102.7 214.5,101.5C 213.807,100.482 213.141,99.4822 212.5,98.5 Z"/></g>
<g><path style="opacity:0.004" fill="#fefffe" d="M 318.5,105.5 C 319.833,106.167 319.833,106.167 318.5,105.5 Z"/></g>
<g><path style="opacity:1" fill="#eca008" d="M 69.5,75.5 C 79.2308,87.2929 88.2308,99.6262 96.5,112.5C 94.1838,111.194 91.8505,109.861 89.5,108.5C 88.1375,106.988 87.8042,105.488 88.5,104C 87.2341,103.691 86.0674,103.191 85,102.5C 84.8078,100.423 84.3078,98.4233 83.5,96.5C 81.6508,95.407 79.9842,94.0737 78.5,92.5C 77.914,92.7093 77.414,93.0426 77,93.5C 76.2075,89.2037 73.7075,86.8704 69.5,86.5C 69.5,82.8333 69.5,79.1667 69.5,75.5 Z"/></g>
<g><path style="opacity:1" fill="#e3e9f4" d="M 8.5,67.5 C 9.74975,67.5774 10.5831,68.244 11,69.5C 11.3333,71.8333 11.6667,74.1667 12,76.5C 12.3333,76.1667 12.6667,75.8333 13,75.5C 12.9994,80.1779 12.4994,84.8445 11.5,89.5C 12.0175,93.4597 12.1842,97.4597 12,101.5C 13,101.5 14,101.5 15,101.5C 15.4361,103.847 15.9361,106.181 16.5,108.5C 15.3693,121.807 15.2026,135.14 16,148.5C 16.8333,149.5 17.6667,150.5 18.5,151.5C 18.8333,150.667 19.1667,149.833 19.5,149C 19.638,141.889 19.3046,134.722 18.5,127.5C 19.5,127.5 20.5,127.5 21.5,127.5C 21.1707,133.537 21.5041,139.537 22.5,145.5C 23.5,149.167 25.8333,151.5 29.5,152.5C 35.1278,153.495 40.7945,153.829 46.5,153.5C 46.5254,156.96 47.1921,160.294 48.5,163.5C 51.5244,165.013 54.1911,167.013 56.5,169.5C 57.2299,172.897 59.2299,174.897 62.5,175.5C 62.5,176.5 62.5,177.5 62.5,178.5C 65.6757,179.34 68.3424,181.007 70.5,183.5C 72.1161,184.989 74.1161,185.989 76.5,186.5C 77.1449,187.646 77.9783,188.646 79,189.5C 80.4936,188.253 81.9936,188.253 83.5,189.5C 83.0233,190.478 82.3567,191.311 81.5,192C 83.9562,193.711 86.6229,195.044 89.5,196C 105.048,196.908 120.548,196.408 136,194.5C 139.569,194.286 142.902,194.953 146,196.5C 147.245,196.539 148.578,196.205 150,195.5C 152.923,197.044 155.756,198.71 158.5,200.5C 159.386,199.675 159.719,198.675 159.5,197.5C 163.593,197.522 167.593,198.189 171.5,199.5C 173.32,199.351 174.82,198.684 176,197.5C 176.5,198 177,198.5 177.5,199C 189.871,200.09 202.205,201.09 214.5,202C 210.6,198.774 210.933,197.274 215.5,197.5C 215.125,200.907 216.125,201.407 218.5,199C 217.66,197.334 218.16,197.167 220,198.5C 220.667,195.833 221.333,195.833 222,198.5C 225.057,197.549 228.223,197.216 231.5,197.5C 231.263,196.209 231.596,195.209 232.5,194.5C 234.856,195.575 237.189,195.575 239.5,194.5C 236.621,193.92 234.954,192.253 234.5,189.5C 236.792,189.244 238.959,189.577 241,190.5C 241.249,189.376 241.749,188.376 242.5,187.5C 244.51,189.171 246.843,189.838 249.5,189.5C 251.142,191.081 253.142,191.747 255.5,191.5C 255.5,193.5 255.5,195.5 255.5,197.5C 254.325,197.281 253.325,197.614 252.5,198.5C 253.374,200.747 253.708,203.08 253.5,205.5C 248.203,206.032 248.203,206.866 253.5,208C 251.995,210.67 249.995,212.836 247.5,214.5C 256.043,216.651 264.709,217.984 273.5,218.5C 276.492,218.191 277.825,216.524 277.5,213.5C 280.777,213.216 283.943,213.549 287,214.5C 288.87,212.595 290.37,210.428 291.5,208C 293.594,207.555 295.094,208.388 296,210.5C 297.205,209.929 298.372,209.262 299.5,208.5C 302.27,204.325 304.77,199.991 307,195.5C 307.126,190.253 307.626,184.919 308.5,179.5C 311.045,162.274 312.045,144.94 311.5,127.5C 311.248,119.635 311.581,111.801 312.5,104C 312.833,103.167 313.167,102.333 313.5,101.5C 314.696,103.145 315.696,104.811 316.5,106.5C 316.463,129.528 315.629,152.528 314,175.5C 313.205,182.604 311.872,189.604 310,196.5C 308.67,201.368 306.504,205.701 303.5,209.5C 303.483,207.972 302.816,207.472 301.5,208C 298.787,211.106 296.62,214.606 295,218.5C 292.254,220.037 289.921,222.037 288,224.5C 286.129,223.332 284.629,223.832 283.5,226C 281.167,226.333 278.833,226.667 276.5,227C 275.707,228.085 275.04,229.252 274.5,230.5C 266.314,232.29 258.147,233.956 250,235.5C 248.914,233.153 247.581,233.153 246,235.5C 235.962,235.492 225.962,235.492 216,235.5C 197.147,232.789 178.314,231.456 159.5,231.5C 143.262,228.889 126.929,226.222 110.5,223.5C 105.853,224.779 101.186,224.779 96.5,223.5C 96.2907,222.914 95.9574,222.414 95.5,222C 93.567,221.749 91.7337,221.249 90,220.5C 89.6667,220.833 89.3333,221.167 89,221.5C 86.6305,219.883 83.9638,218.883 81,218.5C 75.0986,219.442 68.9319,219.109 62.5,217.5C 62.7093,216.914 63.0426,216.414 63.5,216C 60.0123,214.027 56.5123,212.861 53,212.5C 48.6009,215.71 46.2676,214.71 46,209.5C 50.4414,211.111 51.1081,210.444 48,207.5C 47.51,206.207 47.3433,204.873 47.5,203.5C 44.5508,203.069 41.8841,201.902 39.5,200C 39.6183,197.35 38.6183,194.85 36.5,192.5C 35.8076,193.025 35.3076,193.692 35,194.5C 32.5769,192.006 30.2436,192.006 28,194.5C 27.3076,193.975 26.8076,193.308 26.5,192.5C 28.1209,189.536 27.2876,187.536 24,186.5C 21.5615,187.866 21.0615,187.366 22.5,185C 21.8993,183.395 20.8993,182.062 19.5,181C 19.8333,180.667 20.1667,180.333 20.5,180C 18.6711,179.727 17.1711,178.893 16,177.5C 15.8236,174.118 15.3236,170.785 14.5,167.5C 13.5233,169.411 12.8567,171.411 12.5,173.5C 11.1682,169.736 10.3349,165.736 10,161.5C 7.4192,130.198 6.9192,98.8645 8.5,67.5 Z"/></g>
<g><path style="opacity:1" fill="#ea9a01" d="M 223.5,107.5 C 225.948,107.01 227.615,107.843 228.5,110C 226.254,127.611 225.92,145.277 227.5,163C 227.094,166.845 226.594,170.679 226,174.5C 225.329,175.252 224.496,175.586 223.5,175.5C 211.53,161.192 199.53,146.858 187.5,132.5C 188.978,132.238 190.311,132.571 191.5,133.5C 193.393,136.922 194.727,137.256 195.5,134.5C 196.086,134.709 196.586,135.043 197,135.5C 199.827,133.914 199.993,132.248 197.5,130.5C 200.812,130.229 203.146,128.229 204.5,124.5C 205.167,125.5 205.833,126.5 206.5,127.5C 207.667,125.833 208.833,124.167 210,122.5C 210.684,121.216 210.517,120.049 209.5,119C 210.549,118.508 211.549,118.674 212.5,119.5C 214.087,117.915 214.92,116.248 215,114.5C 215.333,114.833 215.667,115.167 216,115.5C 217.6,114.134 219.433,113.134 221.5,112.5C 220.975,111.808 220.308,111.308 219.5,111C 220.731,109.595 222.064,108.429 223.5,107.5 Z"/></g>
<g><path style="opacity:1" fill="#eea701" d="M 228.5,98.5 C 229.167,98.5 229.833,98.5 230.5,98.5C 230.58,125.411 230.414,152.411 230,179.5C 229.612,180.428 228.945,181.095 228,181.5C 225.899,179.906 224.399,177.906 223.5,175.5C 224.496,175.586 225.329,175.252 226,174.5C 226.594,170.679 227.094,166.845 227.5,163C 225.92,145.277 226.254,127.611 228.5,110C 227.615,107.843 225.948,107.01 223.5,107.5C 224.841,105.88 226.674,104.88 229,104.5C 229.167,104.167 229.333,103.833 229.5,103.5C 228.624,102.749 227.624,102.249 226.5,102C 227.305,100.887 227.972,99.7206 228.5,98.5 Z"/></g>
<g><path style="opacity:1" fill="#e6aa01" d="M 75.5,109.5 C 75.3341,114.511 75.5007,119.511 76,124.5C 77.708,121.619 79.208,118.619 80.5,115.5C 85.5,117.833 89.1667,121.5 91.5,126.5C 88.8205,130.798 90.1538,133.131 95.5,133.5C 95.4609,131.641 96.2942,130.308 98,129.5C 98.3333,130.167 98.6667,130.833 99,131.5C 101.015,130.303 102.849,128.97 104.5,127.5C 104.969,126.255 105.303,126.421 105.5,128C 105.022,129.303 104.355,130.469 103.5,131.5C 100.569,135.6 97.069,139.267 93,142.5C 92.3333,143.167 92.3333,143.833 93,144.5C 94.3333,143.833 95.6667,143.167 97,142.5C 100.06,145.607 102.894,148.941 105.5,152.5C 109.313,154.24 112.98,156.24 116.5,158.5C 119.107,159.318 121.774,159.818 124.5,160C 125.456,163.394 125.789,166.894 125.5,170.5C 115.482,170.59 105.482,170.257 95.5,169.5C 95.6882,171.103 95.1882,172.437 94,173.5C 92.3005,172.594 90.4672,172.261 88.5,172.5C 88.6495,171.448 88.4828,170.448 88,169.5C 84.2919,171.987 80.4585,171.987 76.5,169.5C 77.5063,168.604 77.5063,167.938 76.5,167.5C 74.9288,169.415 72.9288,170.415 70.5,170.5C 69.7683,156.768 70.7683,143.268 73.5,130C 73.0426,129.586 72.7093,129.086 72.5,128.5C 73.2891,122.885 73.7891,117.218 74,111.5C 74.2784,110.584 74.7784,109.918 75.5,109.5 Z"/></g>
<g><path style="opacity:1" fill="#f6d27d" d="M 230.5,97.5 C 231.209,96.596 232.209,96.2627 233.5,96.5C 233.5,126.833 233.5,157.167 233.5,187.5C 233.5,188.167 233.5,188.833 233.5,189.5C 232.833,189.833 232.167,190.167 231.5,190.5C 232.152,174.709 232.485,158.876 232.5,143C 232.499,127.485 231.833,112.318 230.5,97.5 Z"/></g>
<g><path style="opacity:1" fill="#faead2" d="M 233.5,96.5 C 233.833,96.5 234.167,96.5 234.5,96.5C 235.159,111.761 235.492,127.094 235.5,142.5C 235.499,157.849 234.833,172.849 233.5,187.5C 233.5,157.167 233.5,126.833 233.5,96.5 Z"/></g>
<g><path style="opacity:1" fill="#e69e02" d="M 80.5,86.5 C 81.552,86.3505 82.552,86.5172 83.5,87C 85.3772,90.9782 88.0439,94.1449 91.5,96.5C 93.8012,99.5646 95.6345,102.898 97,106.5C 97.3879,105.572 98.0546,104.905 99,104.5C 100.762,104.944 100.595,105.444 98.5,106C 100.301,106.317 100.634,106.984 99.5,108C 102.18,109.211 104.013,111.711 105,115.5C 106.324,116.88 107.657,117.214 109,116.5C 108.609,121.534 110.776,125.367 115.5,128C 114.446,129.388 114.28,130.888 115,132.5C 119.522,138.246 124.022,143.913 128.5,149.5C 128.389,150.117 128.056,150.617 127.5,151C 134.584,156.54 142.251,161.04 150.5,164.5C 152.976,163.771 155.476,163.104 158,162.5C 159.595,161.644 160.428,160.311 160.5,158.5C 161.822,158.33 162.989,158.663 164,159.5C 164.465,158.069 165.299,156.903 166.5,156C 169.068,154.43 171.734,152.93 174.5,151.5C 177.956,154.108 181.456,154.108 185,151.5C 186.567,152.856 188.4,153.523 190.5,153.5C 191.22,149.552 191.22,145.719 190.5,142C 189.924,140.286 188.757,139.119 187,138.5C 185.823,135.101 184.656,131.767 183.5,128.5C 185.167,129.5 186.5,130.833 187.5,132.5C 186.475,132.897 186.308,133.563 187,134.5C 196.333,145.833 205.667,157.167 215,168.5C 218.853,174.224 222.687,179.891 226.5,185.5C 224.099,182.457 220.932,180.457 217,179.5C 212.832,179.97 208.832,180.97 205,182.5C 188.308,183.509 171.141,183.509 153.5,182.5C 151.352,182.611 151.019,181.944 152.5,180.5C 154.766,179.686 157.1,179.186 159.5,179C 153.254,177.583 147.254,177.75 141.5,179.5C 141.082,178.778 140.416,178.278 139.5,178C 142.529,177.268 145.529,176.435 148.5,175.5C 154.292,177.708 159.959,177.875 165.5,176C 163.963,174.89 163.297,173.39 163.5,171.5C 161.508,171.672 159.842,171.005 158.5,169.5C 157.201,170.09 156.368,171.09 156,172.5C 153.853,171.887 151.686,171.221 149.5,170.5C 150.729,169.719 152.062,169.219 153.5,169C 149.292,165.348 144.292,163.348 138.5,163C 138.833,162.667 139.167,162.333 139.5,162C 136.79,160.253 133.79,159.253 130.5,159C 128.573,156.403 127.073,153.57 126,150.5C 124.108,149.87 122.441,148.87 121,147.5C 117.682,143.016 114.182,138.682 110.5,134.5C 108.602,135.734 106.935,135.401 105.5,133.5C 106.609,131.786 105.942,131.119 103.5,131.5C 104.355,130.469 105.022,129.303 105.5,128C 105.303,126.421 104.969,126.255 104.5,127.5C 103.373,126.878 102.373,126.045 101.5,125C 102.28,123.927 102.113,122.76 101,121.5C 96.8926,119.629 95.3926,116.629 96.5,112.5C 102.034,117.881 106.867,123.881 111,130.5C 111.654,131.696 112.154,131.696 112.5,130.5C 112,129.5 111.5,128.5 111,127.5C 100.834,113.952 90.6672,100.285 80.5,86.5 Z"/></g>
<g><path style="opacity:1" fill="#e49101" d="M 160.5,158.5 C 160.428,160.311 159.595,161.644 158,162.5C 155.476,163.104 152.976,163.771 150.5,164.5C 142.251,161.04 134.584,156.54 127.5,151C 128.056,150.617 128.389,150.117 128.5,149.5C 135.898,156.846 144.564,158.846 154.5,155.5C 158.549,153.463 162.216,150.796 165.5,147.5C 170.261,141.111 174.427,135.778 178,131.5C 179.5,132.333 180.667,133.5 181.5,135C 180.167,136 180.167,137 181.5,138C 175.24,145.762 168.24,152.595 160.5,158.5 Z"/></g>
<g><path style="opacity:1" fill="#e4a502" d="M 68.5,70.5 C 69.1667,70.8333 69.8333,71.1667 70.5,71.5C 70.8333,72.1667 71.1667,72.8333 71.5,73.5C 70.1667,73.5 69.5,74.1667 69.5,75.5C 69.5,79.1667 69.5,82.8333 69.5,86.5C 72.4143,88.2614 74.4143,90.9281 75.5,94.5C 75.3695,99.3187 75.3695,104.319 75.5,109.5C 74.7784,109.918 74.2784,110.584 74,111.5C 73.7891,117.218 73.2891,122.885 72.5,128.5C 72.7093,129.086 73.0426,129.586 73.5,130C 70.7683,143.268 69.7683,156.768 70.5,170.5C 72.9288,170.415 74.9288,169.415 76.5,167.5C 77.5063,167.938 77.5063,168.604 76.5,169.5C 80.4585,171.987 84.2919,171.987 88,169.5C 88.4828,170.448 88.6495,171.448 88.5,172.5C 90.4672,172.261 92.3005,172.594 94,173.5C 95.1882,172.437 95.6882,171.103 95.5,169.5C 105.482,170.257 115.482,170.59 125.5,170.5C 125.789,166.894 125.456,163.394 124.5,160C 121.774,159.818 119.107,159.318 116.5,158.5C 112.98,156.24 109.313,154.24 105.5,152.5C 102.894,148.941 100.06,145.607 97,142.5C 95.6667,143.167 94.3333,143.833 93,144.5C 92.3333,143.833 92.3333,143.167 93,142.5C 97.069,139.267 100.569,135.6 103.5,131.5C 105.942,131.119 106.609,131.786 105.5,133.5C 106.935,135.401 108.602,135.734 110.5,134.5C 114.182,138.682 117.682,143.016 121,147.5C 122.441,148.87 124.108,149.87 126,150.5C 127.073,153.57 128.573,156.403 130.5,159C 133.79,159.253 136.79,160.253 139.5,162C 139.167,162.333 138.833,162.667 138.5,163C 144.292,163.348 149.292,165.348 153.5,169C 152.062,169.219 150.729,169.719 149.5,170.5C 151.686,171.221 153.853,171.887 156,172.5C 156.368,171.09 157.201,170.09 158.5,169.5C 159.842,171.005 161.508,171.672 163.5,171.5C 163.297,173.39 163.963,174.89 165.5,176C 159.959,177.875 154.292,177.708 148.5,175.5C 145.529,176.435 142.529,177.268 139.5,178C 140.416,178.278 141.082,178.778 141.5,179.5C 119.462,178.691 97.4618,177.358 75.5,175.5C 73.5,175.5 71.5,175.5 69.5,175.5C 69.0614,140.501 68.7281,105.501 68.5,70.5 Z"/></g>
<g><path style="opacity:0.004" fill="#fefffe" d="M 5.5,158.5 C 6.83333,159.167 6.83333,159.167 5.5,158.5 Z"/></g>
<g><path style="opacity:1" fill="#f0eae7" d="M 234.5,96.5 C 235.756,96.4614 236.756,96.9614 237.5,98C 236.863,100.243 236.53,102.576 236.5,105C 237.709,112.632 238.709,120.298 239.5,128C 238.015,144.031 237.015,160.198 236.5,176.5C 236.818,177.647 237.484,178.481 238.5,179C 237.549,182.057 237.216,185.223 237.5,188.5C 236.209,188.263 235.209,188.596 234.5,189.5C 234.954,192.253 236.621,193.92 239.5,194.5C 237.189,195.575 234.856,195.575 232.5,194.5C 229.5,193.833 226.5,193.167 223.5,192.5C 226.518,192.665 229.518,192.498 232.5,192C 233.252,191.329 233.586,190.496 233.5,189.5C 233.5,188.833 233.5,188.167 233.5,187.5C 234.833,172.849 235.499,157.849 235.5,142.5C 235.492,127.094 235.159,111.761 234.5,96.5 Z"/></g>
<g><path style="opacity:1" fill="#fae7c0" d="M 66.5,143.5 C 66.8333,143.5 67.1667,143.5 67.5,143.5C 67.7174,154.86 67.3841,166.193 66.5,177.5C 65.5386,175.735 65.2053,173.735 65.5,171.5C 66.4936,162.348 66.8269,153.015 66.5,143.5 Z"/></g>
<g><path style="opacity:1" fill="#f8bc1f" d="M 230.5,98.5 C 231.828,128.402 231.828,158.402 230.5,188.5C 229.833,188.5 229.167,188.5 228.5,188.5C 228.573,186.973 227.906,185.973 226.5,185.5C 222.687,179.891 218.853,174.224 215,168.5C 205.667,157.167 196.333,145.833 187,134.5C 186.308,133.563 186.475,132.897 187.5,132.5C 199.53,146.858 211.53,161.192 223.5,175.5C 224.399,177.906 225.899,179.906 228,181.5C 228.945,181.095 229.612,180.428 230,179.5C 230.414,152.411 230.58,125.411 230.5,98.5 Z"/></g>
<g><path style="opacity:1" fill="#c29d4d" d="M 67.5,143.5 C 68.1667,154.674 68.8333,166.007 69.5,177.5C 71.0255,177.994 72.3588,178.661 73.5,179.5C 71.4352,179.483 69.4352,179.15 67.5,178.5C 66.8333,178.5 66.5,178.167 66.5,177.5C 67.3841,166.193 67.7174,154.86 67.5,143.5 Z"/></g>
<g><path style="opacity:0.004" fill="#fefffe" d="M 317.5,177.5 C 318.833,178.167 318.833,178.167 317.5,177.5 Z"/></g>
<g><path style="opacity:1" fill="#e9ba3f" d="M 225.5,98.5 C 225.5,98.1667 225.5,97.8333 225.5,97.5C 225.833,97.5 226.167,97.5 226.5,97.5C 227.833,97.5 229.167,97.5 230.5,97.5C 231.833,112.318 232.499,127.485 232.5,143C 232.485,158.876 232.152,174.709 231.5,190.5C 231.167,190.5 230.833,190.5 230.5,190.5C 230.5,189.833 230.5,189.167 230.5,188.5C 231.828,158.402 231.828,128.402 230.5,98.5C 229.833,98.5 229.167,98.5 228.5,98.5C 227.5,98.5 226.5,98.5 225.5,98.5 Z"/></g>
<g><path style="opacity:1" fill="#d99803" d="M 75.5,175.5 C 97.4618,177.358 119.462,178.691 141.5,179.5C 147.254,177.75 153.254,177.583 159.5,179C 157.1,179.186 154.766,179.686 152.5,180.5C 151.019,181.944 151.352,182.611 153.5,182.5C 153.5,182.833 153.5,183.167 153.5,183.5C 152.167,183.5 150.833,183.5 149.5,183.5C 146.833,183.5 144.167,183.5 141.5,183.5C 134.61,182.45 127.61,181.283 120.5,180C 106.152,179.642 91.8182,178.976 77.5,178C 76.244,177.583 75.5774,176.75 75.5,175.5 Z"/></g>
<g><path style="opacity:1" fill="#eadbbb" d="M 67.5,178.5 C 69.4352,179.15 71.4352,179.483 73.5,179.5C 77.0641,180.423 80.7307,180.756 84.5,180.5C 87.8333,181.167 91.1667,181.833 94.5,182.5C 92.1667,182.5 89.8333,182.5 87.5,182.5C 81.0064,182.834 74.6731,182.001 68.5,180C 67.944,179.617 67.6107,179.117 67.5,178.5 Z"/></g>
<g><path style="opacity:1" fill="#d1b073" d="M 84.5,180.5 C 97.0383,180.802 109.372,181.802 121.5,183.5C 118.167,183.5 114.833,183.5 111.5,183.5C 105.839,183.093 100.172,182.76 94.5,182.5C 91.1667,181.833 87.8333,181.167 84.5,180.5 Z"/></g>
<g><path style="opacity:1" fill="#df9102" d="M 226.5,185.5 C 227.906,185.973 228.573,186.973 228.5,188.5C 218.059,188.202 207.726,187.035 197.5,185C 182.809,184.766 168.142,184.266 153.5,183.5C 153.5,183.167 153.5,182.833 153.5,182.5C 171.141,183.509 188.308,183.509 205,182.5C 208.832,180.97 212.832,179.97 217,179.5C 220.932,180.457 224.099,182.457 226.5,185.5 Z"/></g>
<g><path style="opacity:1" fill="#e6e1df" d="M 87.5,182.5 C 89.8333,182.5 92.1667,182.5 94.5,182.5C 100.172,182.76 105.839,183.093 111.5,183.5C 112.609,184.29 113.942,184.79 115.5,185C 121.157,185.499 126.824,185.666 132.5,185.5C 133.167,185.5 133.5,185.833 133.5,186.5C 117.919,186.741 102.586,185.741 87.5,183.5C 87.5,183.167 87.5,182.833 87.5,182.5 Z"/></g>
<g><path style="opacity:1" fill="#bf903c" d="M 127.5,183.5 C 132.167,183.5 136.833,183.5 141.5,183.5C 144.167,183.5 146.833,183.5 149.5,183.5C 150.609,184.29 151.942,184.79 153.5,185C 161.5,185.333 169.5,185.667 177.5,186C 182.362,186.523 187.028,187.356 191.5,188.5C 186.167,188.5 180.833,188.5 175.5,188.5C 161.354,186.716 147.021,185.382 132.5,184.5C 130.585,184.784 128.919,184.451 127.5,183.5 Z"/></g>
<g><path style="opacity:1" fill="#edddc0" d="M 111.5,183.5 C 114.833,183.5 118.167,183.5 121.5,183.5C 123.5,183.5 125.5,183.5 127.5,183.5C 128.919,184.451 130.585,184.784 132.5,184.5C 132.5,184.833 132.5,185.167 132.5,185.5C 126.824,185.666 121.157,185.499 115.5,185C 113.942,184.79 112.609,184.29 111.5,183.5 Z"/></g>
<g><path style="opacity:1" fill="#cf890f" d="M 149.5,183.5 C 150.833,183.5 152.167,183.5 153.5,183.5C 168.142,184.266 182.809,184.766 197.5,185C 207.726,187.035 218.059,188.202 228.5,188.5C 229.167,188.5 229.833,188.5 230.5,188.5C 230.5,189.167 230.5,189.833 230.5,190.5C 217.552,188.966 204.552,188.299 191.5,188.5C 187.028,187.356 182.362,186.523 177.5,186C 169.5,185.667 161.5,185.333 153.5,185C 151.942,184.79 150.609,184.29 149.5,183.5 Z"/></g>
<g><path style="opacity:1" fill="#dae4f5" d="M 159.5,231.5 C 146.8,231.198 134.3,229.531 122,226.5C 102.167,226.945 82.3335,224.945 62.5,220.5C 60.9559,220.21 59.6226,219.544 58.5,218.5C 57.914,218.709 57.414,219.043 57,219.5C 55.742,216.945 53.9086,216.278 51.5,217.5C 49.2487,216.305 46.9154,215.305 44.5,214.5C 43.7838,212.518 42.6171,210.851 41,209.5C 39.2705,211.602 37.4372,211.435 35.5,209C 35.8333,208.667 36.1667,208.333 36.5,208C 33.6356,204.577 30.1356,201.743 26,199.5C 25.9464,196.139 24.9464,193.139 23,190.5C 21.2942,191.308 20.4609,192.641 20.5,194.5C 16.2761,188.171 13.6094,181.171 12.5,173.5C 12.8567,171.411 13.5233,169.411 14.5,167.5C 15.3236,170.785 15.8236,174.118 16,177.5C 17.1711,178.893 18.6711,179.727 20.5,180C 20.1667,180.333 19.8333,180.667 19.5,181C 20.8993,182.062 21.8993,183.395 22.5,185C 21.0615,187.366 21.5615,187.866 24,186.5C 27.2876,187.536 28.1209,189.536 26.5,192.5C 26.8076,193.308 27.3076,193.975 28,194.5C 30.2436,192.006 32.5769,192.006 35,194.5C 35.3076,193.692 35.8076,193.025 36.5,192.5C 38.6183,194.85 39.6183,197.35 39.5,200C 41.8841,201.902 44.5508,203.069 47.5,203.5C 47.3433,204.873 47.51,206.207 48,207.5C 51.1081,210.444 50.4414,211.111 46,209.5C 46.2676,214.71 48.6009,215.71 53,212.5C 56.5123,212.861 60.0123,214.027 63.5,216C 63.0426,216.414 62.7093,216.914 62.5,217.5C 68.9319,219.109 75.0986,219.442 81,218.5C 83.9638,218.883 86.6305,219.883 89,221.5C 89.3333,221.167 89.6667,220.833 90,220.5C 91.7337,221.249 93.567,221.749 95.5,222C 95.9574,222.414 96.2907,222.914 96.5,223.5C 101.186,224.779 105.853,224.779 110.5,223.5C 126.929,226.222 143.262,228.889 159.5,231.5 Z"/></g>
<g><path style="opacity:1" fill="#ecd8b7" d="M 132.5,185.5 C 132.5,185.167 132.5,184.833 132.5,184.5C 147.021,185.382 161.354,186.716 175.5,188.5C 161.487,188.083 147.487,187.416 133.5,186.5C 133.5,185.833 133.167,185.5 132.5,185.5 Z"/></g>
<g><path style="opacity:1" fill="#f0dabd" d="M 175.5,188.5 C 180.833,188.5 186.167,188.5 191.5,188.5C 198.867,189.217 206.2,190.217 213.5,191.5C 200.603,191.532 187.937,190.532 175.5,188.5 Z"/></g>
<g><path style="opacity:1" fill="#c59449" d="M 191.5,188.5 C 204.552,188.299 217.552,188.966 230.5,190.5C 230.833,190.5 231.167,190.5 231.5,190.5C 226.025,191.489 220.358,191.822 214.5,191.5C 214.167,191.5 213.833,191.5 213.5,191.5C 206.2,190.217 198.867,189.217 191.5,188.5 Z"/></g>
<g><path style="opacity:1" fill="#e1e4f0" d="M 70.5,183.5 C 73.1985,183.466 75.6985,184.133 78,185.5C 80.8263,183.66 83.9929,182.994 87.5,183.5C 102.586,185.741 117.919,186.741 133.5,186.5C 147.487,187.416 161.487,188.083 175.5,188.5C 187.937,190.532 200.603,191.532 213.5,191.5C 213.833,191.5 214.167,191.5 214.5,191.5C 217.287,192.477 220.287,192.81 223.5,192.5C 226.5,193.167 229.5,193.833 232.5,194.5C 231.596,195.209 231.263,196.209 231.5,197.5C 228.223,197.216 225.057,197.549 222,198.5C 221.333,195.833 220.667,195.833 220,198.5C 218.16,197.167 217.66,197.334 218.5,199C 216.125,201.407 215.125,200.907 215.5,197.5C 210.933,197.274 210.6,198.774 214.5,202C 202.205,201.09 189.871,200.09 177.5,199C 177,198.5 176.5,198 176,197.5C 174.82,198.684 173.32,199.351 171.5,199.5C 167.593,198.189 163.593,197.522 159.5,197.5C 159.719,198.675 159.386,199.675 158.5,200.5C 155.756,198.71 152.923,197.044 150,195.5C 148.578,196.205 147.245,196.539 146,196.5C 142.902,194.953 139.569,194.286 136,194.5C 120.548,196.408 105.048,196.908 89.5,196C 86.6229,195.044 83.9562,193.711 81.5,192C 82.3567,191.311 83.0233,190.478 83.5,189.5C 81.9936,188.253 80.4936,188.253 79,189.5C 77.9783,188.646 77.1449,187.646 76.5,186.5C 74.1161,185.989 72.1161,184.989 70.5,183.5 Z"/></g>
<g><path style="opacity:1" fill="#f2dfc7" d="M 233.5,189.5 C 233.586,190.496 233.252,191.329 232.5,192C 229.518,192.498 226.518,192.665 223.5,192.5C 220.287,192.81 217.287,192.477 214.5,191.5C 220.358,191.822 226.025,191.489 231.5,190.5C 232.167,190.167 232.833,189.833 233.5,189.5 Z"/></g>
<g><path style="opacity:0.004" fill="#fefffe" d="M 315.5,200.5 C 316.833,201.167 316.833,201.167 315.5,200.5 Z"/></g>
<g><path style="opacity:0.004" fill="#fefffe" d="M 28.5,217.5 C 29.8333,218.167 29.8333,218.167 28.5,217.5 Z"/></g>
<g><path style="opacity:0.004" fill="#fefffe" d="M 30.5,228.5 C 31.8333,229.167 31.8333,229.167 30.5,228.5 Z"/></g>
<g><path style="opacity:1" fill="#cadef3" d="M 159.5,231.5 C 165.06,232.438 170.393,233.771 175.5,235.5C 164.495,234.976 153.495,234.309 142.5,233.5C 138.531,233.294 134.865,233.961 131.5,235.5C 129.901,235.768 128.568,235.434 127.5,234.5C 130.016,234.245 132.35,233.411 134.5,232C 116.139,230.623 97.806,228.957 79.5,227C 75.4746,226.332 71.6412,225.165 68,223.5C 67.5439,224.744 68.0439,225.577 69.5,226C 69.2716,226.399 68.9382,226.565 68.5,226.5C 47.8865,222.52 31.8865,211.854 20.5,194.5C 20.4609,192.641 21.2942,191.308 23,190.5C 24.9464,193.139 25.9464,196.139 26,199.5C 30.1356,201.743 33.6356,204.577 36.5,208C 36.1667,208.333 35.8333,208.667 35.5,209C 37.4372,211.435 39.2705,211.602 41,209.5C 42.6171,210.851 43.7838,212.518 44.5,214.5C 46.9154,215.305 49.2487,216.305 51.5,217.5C 53.9086,216.278 55.742,216.945 57,219.5C 57.414,219.043 57.914,218.709 58.5,218.5C 59.6226,219.544 60.9559,220.21 62.5,220.5C 82.3335,224.945 102.167,226.945 122,226.5C 134.3,229.531 146.8,231.198 159.5,231.5 Z"/></g>
<g><path style="opacity:1" fill="#b8d8ef" d="M 127.5,234.5 C 113.842,233.445 100.176,232.445 86.5,231.5C 83.0832,231.539 79.7498,231.873 76.5,232.5C 72.8441,232.34 71.0107,230.34 71,226.5C 70.6174,227.056 70.1174,227.389 69.5,227.5C 68.8333,227.5 68.5,227.167 68.5,226.5C 68.9382,226.565 69.2716,226.399 69.5,226C 68.0439,225.577 67.5439,224.744 68,223.5C 71.6412,225.165 75.4746,226.332 79.5,227C 97.806,228.957 116.139,230.623 134.5,232C 132.35,233.411 130.016,234.245 127.5,234.5 Z"/></g>
<g><path style="opacity:1" fill="#e2eaf6" d="M 130.5,237.5 C 130.167,238.833 129.833,240.167 129.5,241.5C 126.632,244.024 123.299,245.857 119.5,247C 120.833,248.333 120.833,249.667 119.5,251C 121.973,252.925 121.973,254.758 119.5,256.5C 119.977,257.478 120.643,258.311 121.5,259C 121.014,261.027 121.014,263.193 121.5,265.5C 124.049,266.509 126.715,267.342 129.5,268C 127,268.833 126.833,270 129,271.5C 129.414,271.043 129.914,270.709 130.5,270.5C 134.407,272.083 137.74,274.416 140.5,277.5C 138.527,278.163 136.361,278.496 134,278.5C 129.905,278.569 126.072,277.903 122.5,276.5C 124.767,276.854 126.101,276.521 126.5,275.5C 127.028,274.153 127.195,272.819 127,271.5C 124.602,271.935 122.269,271.269 120,269.5C 119.599,267.479 118.432,266.145 116.5,265.5C 115.534,263.604 115.201,261.604 115.5,259.5C 112.978,259.872 110.978,259.039 109.5,257C 109.833,256.667 110.167,256.333 110.5,256C 107.99,255.624 105.657,254.79 103.5,253.5C 104.5,252.667 105.5,251.833 106.5,251C 104.679,248.756 102.346,247.59 99.5,247.5C 99.67,246.178 99.3366,245.011 98.5,244C 93.751,240.931 88.751,238.264 83.5,236C 82.1667,235.333 82.1667,234.667 83.5,234C 98.6049,233.304 113.438,234.804 128,238.5C 128.671,237.748 129.504,237.414 130.5,237.5 Z"/></g>
<g><path style="opacity:0.958" fill="#d1e1f1" d="M 303.5,209.5 C 295.068,223.229 283.068,232.395 267.5,237C 257.896,238.47 248.229,239.303 238.5,239.5C 217.301,238.858 196.301,237.525 175.5,235.5C 170.393,233.771 165.06,232.438 159.5,231.5C 178.314,231.456 197.147,232.789 216,235.5C 225.962,235.492 235.962,235.492 246,235.5C 247.581,233.153 248.914,233.153 250,235.5C 258.147,233.956 266.314,232.29 274.5,230.5C 275.04,229.252 275.707,228.085 276.5,227C 278.833,226.667 281.167,226.333 283.5,226C 284.629,223.832 286.129,223.332 288,224.5C 289.921,222.037 292.254,220.037 295,218.5C 296.62,214.606 298.787,211.106 301.5,208C 302.816,207.472 303.483,207.972 303.5,209.5 Z"/></g>
<g><path style="opacity:0.004" fill="#fefffe" d="M 71.5,245.5 C 72.8333,246.167 72.8333,246.167 71.5,245.5 Z"/></g>
<g><path style="opacity:1" fill="#dae6f6" d="M 127.5,234.5 C 128.568,235.434 129.901,235.768 131.5,235.5C 131.167,236.167 130.833,236.833 130.5,237.5C 129.504,237.414 128.671,237.748 128,238.5C 113.438,234.804 98.6049,233.304 83.5,234C 82.1667,234.667 82.1667,235.333 83.5,236C 88.751,238.264 93.751,240.931 98.5,244C 99.3366,245.011 99.67,246.178 99.5,247.5C 102.346,247.59 104.679,248.756 106.5,251C 105.5,251.833 104.5,252.667 103.5,253.5C 105.657,254.79 107.99,255.624 110.5,256C 110.167,256.333 109.833,256.667 109.5,257C 110.978,259.039 112.978,259.872 115.5,259.5C 115.201,261.604 115.534,263.604 116.5,265.5C 118.432,266.145 119.599,267.479 120,269.5C 122.269,271.269 124.602,271.935 127,271.5C 127.195,272.819 127.028,274.153 126.5,275.5C 122.631,275.149 119.131,273.816 116,271.5C 115.127,271.735 114.293,272.069 113.5,272.5C 113.264,271.753 112.93,270.92 112.5,270C 109.167,268.667 105.833,267.333 102.5,266C 102.833,265.667 103.167,265.333 103.5,265C 94.4054,262.734 88.4054,257.234 85.5,248.5C 84.086,247.376 82.586,246.376 81,245.5C 79.824,241.17 77.9907,237.17 75.5,233.5C 75.6236,232.893 75.9569,232.56 76.5,232.5C 79.7498,231.873 83.0832,231.539 86.5,231.5C 100.176,232.445 113.842,233.445 127.5,234.5 Z"/></g>
<g><path style="opacity:0.004" fill="#fefffe" d="M 18.5,254.5 C 19.8333,255.167 19.8333,255.167 18.5,254.5 Z"/></g>
<g><path style="opacity:0.004" fill="#fefffe" d="M 135.5,256.5 C 136.833,257.167 136.833,257.167 135.5,256.5 Z"/></g>
<g><path style="opacity:1" fill="#c5ddf2" d="M 76.5,232.5 C 75.9569,232.56 75.6236,232.893 75.5,233.5C 77.9907,237.17 79.824,241.17 81,245.5C 82.586,246.376 84.086,247.376 85.5,248.5C 88.4054,257.234 94.4054,262.734 103.5,265C 103.167,265.333 102.833,265.667 102.5,266C 105.833,267.333 109.167,268.667 112.5,270C 112.93,270.92 113.264,271.753 113.5,272.5C 114.293,272.069 115.127,271.735 116,271.5C 119.131,273.816 122.631,275.149 126.5,275.5C 126.101,276.521 124.767,276.854 122.5,276.5C 94.274,271.608 76.6073,255.275 69.5,227.5C 70.1174,227.389 70.6174,227.056 71,226.5C 71.0107,230.34 72.8441,232.34 76.5,232.5 Z"/></g>
<g><path style="opacity:1" fill="#ebf0f8" d="M 129.5,241.5 C 128.689,248.877 129.856,255.877 133,262.5C 135.911,265.99 138.578,269.656 141,273.5C 141.765,275.066 141.598,276.399 140.5,277.5C 137.74,274.416 134.407,272.083 130.5,270.5C 129.914,270.709 129.414,271.043 129,271.5C 126.833,270 127,268.833 129.5,268C 126.715,267.342 124.049,266.509 121.5,265.5C 121.014,263.193 121.014,261.027 121.5,259C 120.643,258.311 119.977,257.478 119.5,256.5C 121.973,254.758 121.973,252.925 119.5,251C 120.833,249.667 120.833,248.333 119.5,247C 123.299,245.857 126.632,244.024 129.5,241.5 Z"/></g>
<g><path style="opacity:0.004" fill="#fefffe" d="M 85.5,282.5 C 86.8333,283.167 86.8333,283.167 85.5,282.5 Z"/></g>
<g><path style="opacity:0.004" fill="#fefffe" d="M 233.5,283.5 C 234.833,284.167 234.833,284.167 233.5,283.5 Z"/></g>
</svg>
